M48
METRIC,TZ
VER,1
FMAT,2
DETECT,ON
ATC,ON
T1C0.800
T2C1.200
T3C0.889
T4C0.900
T5C1.016
T6C0.995
T7C1.482
T8C1.067
T9C1.181
T10C1.300
T11C1.000
T12C1.600
%
T1
X114.580Y40.300
X173.160Y75.680
X129.800Y42.340
X196.190Y70.310
X103.020Y99.530
X96.440Y23.820
X200.930Y65.570
X111.450Y105.030
X127.770Y162.730
X92.720Y53.980
X110.120Y69.340
X130.660Y86.470
X175.250Y86.370
X118.120Y69.340
X83.780Y54.060
X176.640Y22.320
X190.940Y94.780
X56.660Y137.980
X133.650Y85.800
X139.690Y64.000
X70.510Y104.210
X207.780Y107.335
X223.420Y114.910
X137.005Y138.485
X192.965
X196.660Y151.790
X169.820Y158.340
X157.785Y142.005
X171.920Y149.540
X39.900Y14.330
X204.940Y87.070
X84.490Y64.610
X204.945Y80.735
X150.920Y10.170
X119.220Y10.350
X165.300Y86.170
X120.920Y42.880
X78.670Y73.100
X105.190Y115.500
X14.030Y73.430
X176.820Y65.270
T2
X73.300Y61.900
X73.396Y74.096
X67.300Y76.128
X61.300Y61.900
Y74.100
X66.900Y51.500
X54.704Y51.596
X52.672Y45.500
X66.900Y39.500
X54.700
X86.700Y134.800
X98.896Y134.704
X100.928Y140.800
X86.700Y146.800
X98.900
T3
X44.600Y122.200
X42.060
X56.500
X53.960
X68.300
X65.760
X32.900
X30.360
X151.460Y36.800
X154.000
X51.400Y72.700
Y75.240
X55.040Y100.100
X84.700Y125.700
X87.240
X248.832Y138.800
X246.292
X277.280Y111.540
X284.900Y116.620
X277.280Y114.080
X284.900
Y111.540
X277.280Y109.000
Y116.620
X284.900Y109.000
X212.640Y84.200
X41.120Y35.600
X43.660
X38.580
X211.055Y45.265
X203.435Y37.645
Y42.725
Y40.185
Y35.105
Y32.565
Y30.025
X211.055
Y37.645
Y42.725
Y40.185
Y35.105
Y32.565
X203.435Y45.265
X170.237Y32.000
X167.697
X138.940Y28.800
X141.480
X152.380Y60.710
X144.760Y53.090
Y58.170
Y55.630
Y50.550
Y48.010
Y45.470
X152.380
Y53.090
Y58.170
Y55.630
Y50.550
Y48.010
X144.760Y60.710
X112.060Y51.765
X104.440Y44.145
Y49.225
Y46.685
Y41.605
Y39.065
Y36.525
X112.060
Y44.145
Y49.225
Y46.685
Y41.605
Y39.065
X104.440Y51.765
X86.840Y28.700
X89.380
X49.880Y107.800
X47.340
X52.420
X133.680Y152.100
X131.140
X148.920
X141.300
X136.220
X138.760
X143.840
X146.380
X156.540
X151.460
X154.000
X180.240Y152.000
X182.780
X187.860
X185.320
X190.400
X18.600Y106.480
Y103.940
Y109.020
X47.300Y97.580
Y95.040
Y100.120
X61.580Y149.700
X59.040
X64.120
X44.661Y149.719
X42.121
X47.201
X18.700Y29.780
Y27.240
Y32.320
X66.880Y30.000
X64.340
X69.420
X18.600Y137.080
Y134.540
Y139.620
Y91.260
X199.100Y22.500
X201.640
X138.720Y55.240
Y52.700
X124.320Y28.700
X126.860
X121.780
X98.300Y32.800
Y30.260
X25.500Y62.000
X22.960
X164.700Y99.760
Y115.000
Y122.620
Y125.160
Y120.080
Y117.540
Y107.380
Y112.460
Y109.920
Y102.300
Y104.840
Y94.680
Y97.220
X115.580Y73.100
X97.800
X90.180
X87.640
X92.720
X95.260
X105.420
X100.340
X102.880
X113.040
X107.960
X110.500
X120.660
X118.120
X202.405Y97.205
X204.945
X202.780Y122.575
Y109.875
Y107.335
Y112.415
Y117.495
Y114.955
Y120.035
X199.600Y135.340
X205.800Y132.760
X268.300Y125.760
X172.560Y68.910
X180.180Y61.290
X175.100
X177.640
X182.720
X185.260
X187.800
Y68.910
X180.180
X175.100
X177.640
X182.720
X185.260
X172.560Y61.290
X186.920Y47.900
X179.300Y40.280
Y45.360
Y42.820
Y37.740
Y35.200
Y32.660
X186.920
Y40.280
Y45.360
Y42.820
Y37.740
Y35.200
X179.300Y47.900
X244.400Y96.560
X246.940
X241.860
X236.780
X239.320
X234.240
X231.700Y104.180
X246.940
X244.400
X241.860
X236.780
X239.320
X234.240
X231.700Y96.560
X259.033Y114.126
X256.493Y121.746
X251.413
X253.953
X251.413Y114.126
X256.493
X253.953
X259.033Y121.746
X261.180Y17.600
X258.640
X263.720
X261.200Y44.700
X258.660
X243.780Y70.000
X241.240Y77.620
Y70.000
X243.780Y77.620
X238.700
Y70.000
X260.380
X255.300Y77.620
X257.840Y70.000
Y77.620
X260.380
X255.300Y70.000
X184.380Y19.000
X186.920
X181.840
X145.840Y18.700
X148.380
X153.460
X150.920
X156.000
X129.380
X116.680
X114.140
X119.220
X124.300
X121.760
X126.840
X98.980Y18.800
X96.440
X101.520
X18.700Y80.960
Y78.420
Y73.340
Y75.880
Y70.800
X18.600Y121.780
Y119.240
Y124.320
X224.445Y152.130
X216.825
X211.745
X209.205
X214.285
X219.365
X221.905
X226.985
T4
X194.400Y44.700
Y42.200
X139.600Y115.100
X126.600
X139.500Y106.400
X126.500
X139.500Y97.700
X126.500
X104.785Y133.265
Y120.265
X120.000Y51.800
X117.500
X42.000Y129.900
Y142.900
X78.870Y132.780
Y145.780
X30.300Y129.900
Y142.900
X65.800Y129.900
Y142.900
X32.700Y80.800
Y93.800
X29.000Y78.300
Y91.300
X53.900Y129.900
Y142.900
X211.800Y134.400
Y147.400
X224.475Y147.440
Y134.440
X134.385Y48.150
Y35.150
X259.100Y110.200
Y107.700
Y128.200
Y125.700
X171.500Y42.800
Y45.300
X247.100Y119.200
Y121.700
X244.600Y114.100
X247.100
X240.600Y108.700
X253.600
X227.100Y110.000
Y123.000
X236.860Y108.710
Y121.710
X231.300Y123.000
Y110.000
X271.600Y111.500
X274.100
X216.500Y35.500
Y22.500
X216.400Y42.800
Y45.300
X203.400Y51.100
X216.400
X198.400Y55.200
Y42.200
X194.700Y54.100
Y56.600
X157.800Y58.200
Y60.700
X165.300Y66.400
Y68.900
X173.200Y49.300
X160.200
X175.100Y56.600
X162.100
X190.700
X177.700
X144.715Y66.450
X157.715
X144.600Y70.200
X131.600
X138.000Y61.500
X125.000
X162.900Y26.600
X149.900
X138.925Y48.325
Y35.325
X131.000Y45.100
Y58.100
X124.700Y58.200
Y45.200
X118.800Y30.300
X105.800
X104.500Y57.200
X117.500
X86.645Y44.015
X99.645
X99.800Y39.775
X86.800
X86.635Y48.385
X99.635
X99.600Y57.100
X86.600
X32.600Y62.000
X45.600
X14.800Y58.000
Y45.000
X88.000Y101.600
Y88.600
X83.500Y101.600
Y88.600
X92.500Y101.600
Y88.600
X78.900Y101.600
Y88.600
Y117.360
Y107.200
X83.500Y117.360
Y107.200
X88.000Y117.360
Y107.200
X92.500Y117.360
Y107.200
X97.800Y117.400
Y104.400
X54.300Y82.300
X67.300
X172.500Y145.400
X159.500
X113.500Y127.400
X126.500
Y122.000
X113.500
X145.300Y93.100
X158.300
X145.300Y96.700
X158.300
X145.280Y100.150
X158.280
X145.250Y103.760
X158.250
X145.330Y107.405
X158.330
X145.315Y110.895
X158.315
X141.600Y116.900
X154.600
X220.735Y147.380
Y134.380
X210.800Y104.800
X223.800
X223.900Y100.400
X210.900
X224.900Y93.000
Y80.000
X221.000
Y93.000
X231.900Y89.400
Y91.900
X264.400Y99.700
X251.400
Y95.800
X264.400
X264.415Y91.740
X251.415
X263.900Y125.700
Y112.700
X254.000Y130.000
X241.000
X254.000Y126.300
X241.000
X287.100Y125.400
X274.100
X268.300Y121.400
X281.300
X290.000Y127.100
Y114.100
Y109.000
Y96.000
X285.600Y99.800
X272.600
X285.600Y96.000
X272.600
X192.400Y22.100
Y35.100
X134.135Y67.065
X131.635
X86.600Y51.500
Y54.000
X220.900Y125.500
X207.900
X273.700Y17.700
Y30.700
X261.200Y37.500
Y24.500
X266.100Y37.500
Y24.500
X256.200Y37.500
Y24.500
X273.700Y39.800
Y52.800
X255.300Y53.500
Y66.500
X250.700Y50.500
Y63.500
X246.100Y50.500
Y63.500
X238.700Y53.600
Y66.600
X139.500Y120.200
X152.500
X139.500Y123.800
X152.500
T5
X120.300Y113.800
X121.570Y115.070
X120.300Y116.340
Y105.100
X121.570Y106.370
X120.300Y107.640
Y96.400
X121.570Y97.670
X120.300Y98.940
X51.400Y59.800
X50.130Y58.530
X51.400Y57.260
X125.530Y38.130
X126.800Y36.860
Y39.400
X98.025Y124.680
X99.295Y125.950
X98.025Y127.220
T6
X52.500Y100.100
X210.100Y84.200
X46.200Y35.600
X172.777Y32.000
X136.400Y28.800
X84.300Y28.700
X44.800Y107.800
X128.600Y152.100
X177.700Y152.000
X18.600Y101.400
X47.300Y92.500
X56.500Y149.700
X39.581Y149.719
X18.700Y24.700
X61.800Y30.000
X18.600Y132.000
Y93.800
X138.720Y57.780
X129.400Y28.700
X164.700Y127.700
X85.100Y73.100
X199.865Y97.205
X202.780Y104.795
X199.600Y132.800
X205.800Y135.300
X268.300Y128.300
X256.100Y17.600
X179.300Y19.000
X143.300Y18.700
X111.600
X93.900Y18.800
X18.700Y83.500
X18.600Y116.700
X206.665Y152.130
T7
X246.100Y44.960
Y34.800
X40.305Y52.040
Y41.880
X25.485Y52.375
Y42.215
X32.900Y110.260
Y100.100
T8
X166.200Y42.800
Y37.720
Y40.260
X178.900Y26.600
X173.820
X176.360
X241.840Y91.925
X236.760
X239.300
T9
X215.700Y89.820
Y92.210
Y94.600
T10
X285.620Y64.140
X270.380Y84.460
X278.000
X270.380Y64.140
X285.620Y84.460
T11
X178.225Y132.760
Y130.220
Y127.680
Y125.140
Y122.600
Y120.060
Y117.520
Y114.980
Y112.440
Y109.900
Y107.360
Y104.820
Y102.280
Y99.740
Y97.200
X193.465Y132.760
Y130.220
Y127.680
Y125.140
Y122.600
Y120.060
Y117.520
Y114.980
Y112.440
Y109.900
Y107.360
Y104.820
Y102.280
Y99.740
Y97.200
T12
X29.900Y26.200
X34.900
X39.900
X44.900
X49.900
M30
