G04 Generated by Ultiboard 13.0 *
%FSLAX33Y33*%
%MOMM*%

%ADD10C,0.001*%
%ADD11C,0.127*%
%ADD12C,1.000*%
%ADD13C,1.556*%
%ADD14C,1.609*%
%ADD15C,1.500*%
%ADD16C,1.185*%
%ADD17R,0.529X0.529*%
%ADD18C,0.995*%
%ADD19C,3.006*%
%ADD20C,1.422*%
%ADD21C,1.537*%
%ADD22R,1.537X1.537*%
%ADD23C,2.300*%
%ADD24C,1.245*%
%ADD25R,1.500X1.500*%
%ADD26C,1.760*%
%ADD27R,1.245X1.245*%
%ADD28C,2.600*%


G04 ColorRGB 9900CC for the following layer *
%LNSolder Mask Bottom*%
%LPD*%
G54D10*
G54D11*
X-1207Y-1137D02*
X-1207Y16089D01*
X-1207Y-1137D02*
X28813Y-1137D01*
X298997Y-1137D02*
X268977Y-1137D01*
X298997Y-1137D02*
X298997Y16089D01*
X298997Y171127D02*
X298997Y153901D01*
X298997Y171127D02*
X268977Y171127D01*
X-1207Y171127D02*
X28813Y171127D01*
X-1207Y171127D02*
X-1207Y153901D01*
X-6207Y-1137D02*
X-16207Y-1137D01*
X-11207Y-6137D02*
X-11207Y3863D01*
X-14957Y-1137D02*
G75*
D01*
G02X-14957Y-1137I3750J0*
G01*
X303997Y-1137D02*
X313997Y-1137D01*
X308997Y-6137D02*
X308997Y3863D01*
X305247Y-1137D02*
G75*
D01*
G02X305247Y-1137I3750J0*
G01*
X307747Y-1137D02*
G75*
D01*
G02X307747Y-1137I1250J0*
G01*
X-6207Y171127D02*
X-16207Y171127D01*
X-11207Y166127D02*
X-11207Y176127D01*
X-14957Y171127D02*
G75*
D01*
G02X-14957Y171127I3750J0*
G01*
X-13707Y171127D02*
G75*
D01*
G02X-13707Y171127I2500J0*
G01*
X-12457Y171127D02*
G75*
D01*
G02X-12457Y171127I1250J0*
G01*
G54D12*
X114580Y40300D03*
X173160Y75680D03*
X129800Y42340D03*
X196190Y70310D03*
X103020Y99530D03*
X96440Y23820D03*
X200930Y65570D03*
X111450Y105030D03*
X127770Y162730D03*
X92720Y53980D03*
X110120Y69340D03*
X130660Y86470D03*
X175250Y86370D03*
X118120Y69340D03*
X83780Y54060D03*
X176640Y22320D03*
X190940Y94780D03*
X56660Y137980D03*
X133650Y85800D03*
X139690Y64000D03*
X70510Y104210D03*
X207780Y107335D03*
X223420Y114910D03*
X137005Y138485D03*
X192965Y138485D03*
X196660Y151790D03*
X169820Y158340D03*
X157785Y142005D03*
X171920Y149540D03*
X39900Y14330D03*
X204940Y87070D03*
X84490Y64610D03*
X204945Y80735D03*
X150920Y10170D03*
X119220Y10350D03*
X165300Y86170D03*
X120920Y42880D03*
X78670Y73100D03*
X105190Y115500D03*
X14030Y73430D03*
X176820Y65270D03*
G54D13*
X73300Y61900D03*
X73396Y74096D03*
X67300Y76128D03*
X61300Y61900D03*
X61300Y74100D03*
X66900Y51500D03*
X54704Y51596D03*
X52672Y45500D03*
X66900Y39500D03*
X54700Y39500D03*
X86700Y134800D03*
X98896Y134704D03*
X100928Y140800D03*
X86700Y146800D03*
X98900Y146800D03*
G54D14*
X44600Y122200D03*
X42060Y122200D03*
X56500Y122200D03*
X53960Y122200D03*
X68300Y122200D03*
X65760Y122200D03*
X32900Y122200D03*
X30360Y122200D03*
X151460Y36800D03*
X154000Y36800D03*
X51400Y72700D03*
X51400Y75240D03*
X55040Y100100D03*
X84700Y125700D03*
X87240Y125700D03*
X248832Y138800D03*
X246292Y138800D03*
X212640Y84200D03*
X41120Y35600D03*
X43660Y35600D03*
X38580Y35600D03*
X170237Y32000D03*
X167697Y32000D03*
X138940Y28800D03*
X141480Y28800D03*
X86840Y28700D03*
X89380Y28700D03*
X49880Y107800D03*
X47340Y107800D03*
X52420Y107800D03*
X133680Y152100D03*
X131140Y152100D03*
X148920Y152100D03*
X141300Y152100D03*
X136220Y152100D03*
X138760Y152100D03*
X143840Y152100D03*
X146380Y152100D03*
X156540Y152100D03*
X151460Y152100D03*
X154000Y152100D03*
X180240Y152000D03*
X182780Y152000D03*
X187860Y152000D03*
X185320Y152000D03*
X190400Y152000D03*
X18600Y106480D03*
X18600Y103940D03*
X18600Y109020D03*
X47300Y97580D03*
X47300Y95040D03*
X47300Y100120D03*
X61580Y149700D03*
X59040Y149700D03*
X64120Y149700D03*
X44661Y149719D03*
X42121Y149719D03*
X47201Y149719D03*
X18700Y29780D03*
X18700Y27240D03*
X18700Y32320D03*
X66880Y30000D03*
X64340Y30000D03*
X69420Y30000D03*
X18600Y137080D03*
X18600Y134540D03*
X18600Y139620D03*
X18600Y91260D03*
X199100Y22500D03*
X201640Y22500D03*
X138720Y55240D03*
X138720Y52700D03*
X124320Y28700D03*
X126860Y28700D03*
X121780Y28700D03*
X98300Y32800D03*
X98300Y30260D03*
X25500Y62000D03*
X22960Y62000D03*
X164700Y99760D03*
X164700Y115000D03*
X164700Y122620D03*
X164700Y125160D03*
X164700Y120080D03*
X164700Y117540D03*
X164700Y107380D03*
X164700Y112460D03*
X164700Y109920D03*
X164700Y102300D03*
X164700Y104840D03*
X164700Y94680D03*
X164700Y97220D03*
X115580Y73100D03*
X97800Y73100D03*
X90180Y73100D03*
X87640Y73100D03*
X92720Y73100D03*
X95260Y73100D03*
X105420Y73100D03*
X100340Y73100D03*
X102880Y73100D03*
X113040Y73100D03*
X107960Y73100D03*
X110500Y73100D03*
X120660Y73100D03*
X118120Y73100D03*
X202405Y97205D03*
X204945Y97205D03*
X202780Y122575D03*
X202780Y109875D03*
X202780Y107335D03*
X202780Y112415D03*
X202780Y117495D03*
X202780Y114955D03*
X202780Y120035D03*
X199600Y135340D03*
X205800Y132760D03*
X268300Y125760D03*
X261180Y17600D03*
X258640Y17600D03*
X263720Y17600D03*
X261200Y44700D03*
X258660Y44700D03*
X184380Y19000D03*
X186920Y19000D03*
X181840Y19000D03*
X145840Y18700D03*
X148380Y18700D03*
X153460Y18700D03*
X150920Y18700D03*
X156000Y18700D03*
X129380Y18700D03*
X116680Y18700D03*
X114140Y18700D03*
X119220Y18700D03*
X124300Y18700D03*
X121760Y18700D03*
X126840Y18700D03*
X98980Y18800D03*
X96440Y18800D03*
X101520Y18800D03*
X18700Y80960D03*
X18700Y78420D03*
X18700Y73340D03*
X18700Y75880D03*
X18700Y70800D03*
X18600Y121780D03*
X18600Y119240D03*
X18600Y124320D03*
X224445Y152130D03*
X216825Y152130D03*
X211745Y152130D03*
X209205Y152130D03*
X214285Y152130D03*
X219365Y152130D03*
X221905Y152130D03*
X226985Y152130D03*
G54D15*
X194400Y44700D03*
X194400Y42200D03*
X139600Y115100D03*
X126600Y115100D03*
X139500Y106400D03*
X126500Y106400D03*
X139500Y97700D03*
X126500Y97700D03*
X104785Y133265D03*
X104785Y120265D03*
X120000Y51800D03*
X117500Y51800D03*
X42000Y129900D03*
X42000Y142900D03*
X78870Y132780D03*
X78870Y145780D03*
X30300Y129900D03*
X30300Y142900D03*
X65800Y129900D03*
X65800Y142900D03*
X32700Y80800D03*
X32700Y93800D03*
X29000Y78300D03*
X29000Y91300D03*
X53900Y129900D03*
X53900Y142900D03*
X211800Y134400D03*
X211800Y147400D03*
X224475Y147440D03*
X224475Y134440D03*
X134385Y48150D03*
X134385Y35150D03*
X259100Y110200D03*
X259100Y107700D03*
X259100Y128200D03*
X259100Y125700D03*
X171500Y42800D03*
X171500Y45300D03*
X247100Y119200D03*
X247100Y121700D03*
X244600Y114100D03*
X247100Y114100D03*
X240600Y108700D03*
X253600Y108700D03*
X227100Y110000D03*
X227100Y123000D03*
X236860Y108710D03*
X236860Y121710D03*
X231300Y123000D03*
X231300Y110000D03*
X271600Y111500D03*
X274100Y111500D03*
X216500Y35500D03*
X216500Y22500D03*
X216400Y42800D03*
X216400Y45300D03*
X203400Y51100D03*
X216400Y51100D03*
X198400Y55200D03*
X198400Y42200D03*
X194700Y54100D03*
X194700Y56600D03*
X157800Y58200D03*
X157800Y60700D03*
X165300Y66400D03*
X165300Y68900D03*
X173200Y49300D03*
X160200Y49300D03*
X175100Y56600D03*
X162100Y56600D03*
X190700Y56600D03*
X177700Y56600D03*
X144715Y66450D03*
X157715Y66450D03*
X144600Y70200D03*
X131600Y70200D03*
X138000Y61500D03*
X125000Y61500D03*
X162900Y26600D03*
X149900Y26600D03*
X138925Y48325D03*
X138925Y35325D03*
X131000Y45100D03*
X131000Y58100D03*
X124700Y58200D03*
X124700Y45200D03*
X118800Y30300D03*
X105800Y30300D03*
X104500Y57200D03*
X117500Y57200D03*
X86645Y44015D03*
X99645Y44015D03*
X99800Y39775D03*
X86800Y39775D03*
X86635Y48385D03*
X99635Y48385D03*
X99600Y57100D03*
X86600Y57100D03*
X32600Y62000D03*
X45600Y62000D03*
X14800Y58000D03*
X14800Y45000D03*
X88000Y101600D03*
X88000Y88600D03*
X83500Y101600D03*
X83500Y88600D03*
X92500Y101600D03*
X92500Y88600D03*
X78900Y101600D03*
X78900Y88600D03*
X78900Y117360D03*
X83500Y117360D03*
X88000Y117360D03*
X92500Y117360D03*
X97800Y117400D03*
X97800Y104400D03*
X54300Y82300D03*
X67300Y82300D03*
X172500Y145400D03*
X159500Y145400D03*
X113500Y127400D03*
X126500Y127400D03*
X126500Y122000D03*
X113500Y122000D03*
X145300Y93100D03*
X158300Y93100D03*
X145300Y96700D03*
X158300Y96700D03*
X145280Y100150D03*
X158280Y100150D03*
X145250Y103760D03*
X158250Y103760D03*
X145330Y107405D03*
X158330Y107405D03*
X145315Y110895D03*
X158315Y110895D03*
X141600Y116900D03*
X154600Y116900D03*
X220735Y147380D03*
X220735Y134380D03*
X210800Y104800D03*
X223800Y104800D03*
X223900Y100400D03*
X210900Y100400D03*
X224900Y93000D03*
X224900Y80000D03*
X221000Y80000D03*
X221000Y93000D03*
X231900Y89400D03*
X231900Y91900D03*
X264400Y99700D03*
X251400Y99700D03*
X251400Y95800D03*
X264400Y95800D03*
X264415Y91740D03*
X251415Y91740D03*
X263900Y125700D03*
X263900Y112700D03*
X254000Y130000D03*
X241000Y130000D03*
X254000Y126300D03*
X241000Y126300D03*
X287100Y125400D03*
X274100Y125400D03*
X268300Y121400D03*
X281300Y121400D03*
X290000Y127100D03*
X290000Y114100D03*
X290000Y109000D03*
X290000Y96000D03*
X285600Y99800D03*
X272600Y99800D03*
X285600Y96000D03*
X272600Y96000D03*
X192400Y22100D03*
X192400Y35100D03*
X134135Y67065D03*
X131635Y67065D03*
X86600Y51500D03*
X86600Y54000D03*
X220900Y125500D03*
X207900Y125500D03*
X273700Y17700D03*
X273700Y30700D03*
X261200Y37500D03*
X261200Y24500D03*
X266100Y37500D03*
X266100Y24500D03*
X256200Y37500D03*
X256200Y24500D03*
X273700Y39800D03*
X273700Y52800D03*
X255300Y53500D03*
X255300Y66500D03*
X250700Y50500D03*
X250700Y63500D03*
X246100Y50500D03*
X246100Y63500D03*
X238700Y53600D03*
X238700Y66600D03*
X139500Y120200D03*
X152500Y120200D03*
X139500Y123800D03*
X152500Y123800D03*
G54D16*
X120300Y113800D03*
X121570Y115070D03*
X120300Y116340D03*
X120300Y105100D03*
X121570Y106370D03*
X120300Y107640D03*
X120300Y96400D03*
X121570Y97670D03*
X120300Y98940D03*
X51400Y59800D03*
X50130Y58530D03*
X51400Y57260D03*
X125530Y38130D03*
X126800Y36860D03*
X126800Y39400D03*
X98025Y124680D03*
X99295Y125950D03*
X98025Y127220D03*
G54D17*
X52500Y100100D03*
X210100Y84200D03*
X46200Y35600D03*
X172777Y32000D03*
X136400Y28800D03*
X84300Y28700D03*
X44800Y107800D03*
X128600Y152100D03*
X177700Y152000D03*
X18600Y101400D03*
X47300Y92500D03*
X56500Y149700D03*
X39581Y149719D03*
X18700Y24700D03*
X61800Y30000D03*
X18600Y132000D03*
X18600Y93800D03*
X138720Y57780D03*
X129400Y28700D03*
X164700Y127700D03*
X85100Y73100D03*
X199865Y97205D03*
X202780Y104795D03*
X199600Y132800D03*
X205800Y135300D03*
X268300Y128300D03*
X256100Y17600D03*
X179300Y19000D03*
X143300Y18700D03*
X111600Y18700D03*
X93900Y18800D03*
X18700Y83500D03*
X18600Y116700D03*
X206665Y152130D03*
G54D18*
X52236Y99836D02*
X52764Y99836D01*
X52764Y100364D01*
X52236Y100364D01*
X52236Y99836D01*D02*
X209836Y83936D02*
X210364Y83936D01*
X210364Y84464D01*
X209836Y84464D01*
X209836Y83936D01*D02*
X45936Y35336D02*
X46464Y35336D01*
X46464Y35864D01*
X45936Y35864D01*
X45936Y35336D01*D02*
X172513Y31736D02*
X173041Y31736D01*
X173041Y32264D01*
X172513Y32264D01*
X172513Y31736D01*D02*
X136136Y28536D02*
X136664Y28536D01*
X136664Y29064D01*
X136136Y29064D01*
X136136Y28536D01*D02*
X84036Y28436D02*
X84564Y28436D01*
X84564Y28964D01*
X84036Y28964D01*
X84036Y28436D01*D02*
X44536Y107536D02*
X45064Y107536D01*
X45064Y108064D01*
X44536Y108064D01*
X44536Y107536D01*D02*
X128336Y151836D02*
X128864Y151836D01*
X128864Y152364D01*
X128336Y152364D01*
X128336Y151836D01*D02*
X177436Y151736D02*
X177964Y151736D01*
X177964Y152264D01*
X177436Y152264D01*
X177436Y151736D01*D02*
X18336Y101136D02*
X18864Y101136D01*
X18864Y101664D01*
X18336Y101664D01*
X18336Y101136D01*D02*
X47036Y92236D02*
X47564Y92236D01*
X47564Y92764D01*
X47036Y92764D01*
X47036Y92236D01*D02*
X56236Y149436D02*
X56764Y149436D01*
X56764Y149964D01*
X56236Y149964D01*
X56236Y149436D01*D02*
X39317Y149455D02*
X39845Y149455D01*
X39845Y149983D01*
X39317Y149983D01*
X39317Y149455D01*D02*
X18436Y24436D02*
X18964Y24436D01*
X18964Y24964D01*
X18436Y24964D01*
X18436Y24436D01*D02*
X61536Y29736D02*
X62064Y29736D01*
X62064Y30264D01*
X61536Y30264D01*
X61536Y29736D01*D02*
X18336Y131736D02*
X18864Y131736D01*
X18864Y132264D01*
X18336Y132264D01*
X18336Y131736D01*D02*
X18336Y93536D02*
X18864Y93536D01*
X18864Y94064D01*
X18336Y94064D01*
X18336Y93536D01*D02*
X138456Y57516D02*
X138984Y57516D01*
X138984Y58044D01*
X138456Y58044D01*
X138456Y57516D01*D02*
X129136Y28436D02*
X129664Y28436D01*
X129664Y28964D01*
X129136Y28964D01*
X129136Y28436D01*D02*
X164436Y127436D02*
X164964Y127436D01*
X164964Y127964D01*
X164436Y127964D01*
X164436Y127436D01*D02*
X84836Y72836D02*
X85364Y72836D01*
X85364Y73364D01*
X84836Y73364D01*
X84836Y72836D01*D02*
X199601Y96941D02*
X200129Y96941D01*
X200129Y97469D01*
X199601Y97469D01*
X199601Y96941D01*D02*
X202516Y104531D02*
X203044Y104531D01*
X203044Y105059D01*
X202516Y105059D01*
X202516Y104531D01*D02*
X199336Y132536D02*
X199864Y132536D01*
X199864Y133064D01*
X199336Y133064D01*
X199336Y132536D01*D02*
X205536Y135036D02*
X206064Y135036D01*
X206064Y135564D01*
X205536Y135564D01*
X205536Y135036D01*D02*
X268036Y128036D02*
X268564Y128036D01*
X268564Y128564D01*
X268036Y128564D01*
X268036Y128036D01*D02*
X255836Y17336D02*
X256364Y17336D01*
X256364Y17864D01*
X255836Y17864D01*
X255836Y17336D01*D02*
X179036Y18736D02*
X179564Y18736D01*
X179564Y19264D01*
X179036Y19264D01*
X179036Y18736D01*D02*
X143036Y18436D02*
X143564Y18436D01*
X143564Y18964D01*
X143036Y18964D01*
X143036Y18436D01*D02*
X111336Y18436D02*
X111864Y18436D01*
X111864Y18964D01*
X111336Y18964D01*
X111336Y18436D01*D02*
X93636Y18536D02*
X94164Y18536D01*
X94164Y19064D01*
X93636Y19064D01*
X93636Y18536D01*D02*
X18436Y83236D02*
X18964Y83236D01*
X18964Y83764D01*
X18436Y83764D01*
X18436Y83236D01*D02*
X18336Y116436D02*
X18864Y116436D01*
X18864Y116964D01*
X18336Y116964D01*
X18336Y116436D01*D02*
X206401Y151866D02*
X206929Y151866D01*
X206929Y152394D01*
X206401Y152394D01*
X206401Y151866D01*D02*
G54D19*
X246100Y44960D03*
X246100Y34800D03*
X40305Y52040D03*
X40305Y41880D03*
X25485Y52375D03*
X25485Y42215D03*
X32900Y110260D03*
X32900Y100100D03*
G54D20*
X166200Y42800D03*
X166200Y37720D03*
X166200Y40260D03*
X178900Y26600D03*
X173820Y26600D03*
X176360Y26600D03*
X241840Y91925D03*
X236760Y91925D03*
X239300Y91925D03*
G54D21*
X215700Y89820D03*
X215700Y92210D03*
G54D22*
X215700Y94600D03*
G54D23*
X285620Y64140D03*
X270380Y84460D03*
X278000Y84460D03*
X270380Y64140D03*
X285620Y84460D03*
G54D24*
X277280Y111540D03*
X284900Y116620D03*
X277280Y114080D03*
X284900Y114080D03*
X284900Y111540D03*
X277280Y109000D03*
X277280Y116620D03*
X284900Y109000D03*
X211055Y45265D03*
X203435Y37645D03*
X203435Y42725D03*
X203435Y40185D03*
X203435Y35105D03*
X203435Y32565D03*
X203435Y30025D03*
X211055Y30025D03*
X211055Y37645D03*
X211055Y42725D03*
X211055Y40185D03*
X211055Y35105D03*
X211055Y32565D03*
X203435Y45265D03*
X152380Y60710D03*
X144760Y53090D03*
X144760Y58170D03*
X144760Y55630D03*
X144760Y50550D03*
X144760Y48010D03*
X144760Y45470D03*
X152380Y45470D03*
X152380Y53090D03*
X152380Y58170D03*
X152380Y55630D03*
X152380Y50550D03*
X152380Y48010D03*
X144760Y60710D03*
X112060Y51765D03*
X104440Y44145D03*
X104440Y49225D03*
X104440Y46685D03*
X104440Y41605D03*
X104440Y39065D03*
X104440Y36525D03*
X112060Y36525D03*
X112060Y44145D03*
X112060Y49225D03*
X112060Y46685D03*
X112060Y41605D03*
X112060Y39065D03*
X104440Y51765D03*
X172560Y68910D03*
X180180Y61290D03*
X175100Y61290D03*
X177640Y61290D03*
X182720Y61290D03*
X185260Y61290D03*
X187800Y61290D03*
X187800Y68910D03*
X180180Y68910D03*
X175100Y68910D03*
X177640Y68910D03*
X182720Y68910D03*
X185260Y68910D03*
X172560Y61290D03*
X186920Y47900D03*
X179300Y40280D03*
X179300Y45360D03*
X179300Y42820D03*
X179300Y37740D03*
X179300Y35200D03*
X179300Y32660D03*
X186920Y32660D03*
X186920Y40280D03*
X186920Y45360D03*
X186920Y42820D03*
X186920Y37740D03*
X186920Y35200D03*
X179300Y47900D03*
X244400Y96560D03*
X246940Y96560D03*
X241860Y96560D03*
X236780Y96560D03*
X239320Y96560D03*
X234240Y96560D03*
X231700Y104180D03*
X246940Y104180D03*
X244400Y104180D03*
X241860Y104180D03*
X236780Y104180D03*
X239320Y104180D03*
X234240Y104180D03*
X259033Y114126D03*
X256493Y121746D03*
X251413Y121746D03*
X253953Y121746D03*
X251413Y114126D03*
X256493Y114126D03*
X253953Y114126D03*
X259033Y121746D03*
X243780Y70000D03*
X241240Y77620D03*
X241240Y70000D03*
X243780Y77620D03*
X238700Y77620D03*
X238700Y70000D03*
X260380Y70000D03*
X255300Y77620D03*
X257840Y70000D03*
X257840Y77620D03*
X260380Y77620D03*
X255300Y70000D03*
G54D25*
X78900Y107200D03*
X83500Y107200D03*
X88000Y107200D03*
X92500Y107200D03*
G54D26*
X178225Y132760D03*
X178225Y130220D03*
X178225Y127680D03*
X178225Y125140D03*
X178225Y122600D03*
X178225Y120060D03*
X178225Y117520D03*
X178225Y114980D03*
X178225Y112440D03*
X178225Y109900D03*
X178225Y107360D03*
X178225Y104820D03*
X178225Y102280D03*
X178225Y99740D03*
X178225Y97200D03*
X193465Y132760D03*
X193465Y130220D03*
X193465Y127680D03*
X193465Y125140D03*
X193465Y122600D03*
X193465Y120060D03*
X193465Y117520D03*
X193465Y114980D03*
X193465Y112440D03*
X193465Y109900D03*
X193465Y107360D03*
X193465Y104820D03*
X193465Y102280D03*
X193465Y99740D03*
X193465Y97200D03*
G54D27*
X231700Y96560D03*
G54D28*
X29900Y26200D03*
X34900Y26200D03*
X39900Y26200D03*
X44900Y26200D03*
X49900Y26200D03*

M02*
