G04 Generated by Ultiboard 13.0 *
%FSLAX33Y33*%
%MOMM*%

%ADD10C,0.001*%
%ADD11C,0.010*%
%ADD12C,0.100*%
%ADD13C,0.001*%
%ADD14C,0.127*%


G04 ColorRGB 000000 for the following layer *
%LNDrill Symbols-Copper Top-Copper Bottom*%
%LPD*%
G54D11*
X114180Y40300D02*
X114980Y40300D01*
X114580Y39900D02*
X114580Y40700D01*
X44156Y122200D02*
G75*
D01*
G02X44156Y122200I444J0*
G01*
X41616Y122200D02*
G75*
D01*
G02X41616Y122200I444J0*
G01*
X56056Y122200D02*
G75*
D01*
G02X56056Y122200I444J0*
G01*
X53516Y122200D02*
G75*
D01*
G02X53516Y122200I444J0*
G01*
X67856Y122200D02*
G75*
D01*
G02X67856Y122200I444J0*
G01*
X65316Y122200D02*
G75*
D01*
G02X65316Y122200I444J0*
G01*
X32456Y122200D02*
G75*
D01*
G02X32456Y122200I444J0*
G01*
X29916Y122200D02*
G75*
D01*
G02X29916Y122200I444J0*
G01*
X172760Y75680D02*
X173560Y75680D01*
X173160Y75280D02*
X173160Y76080D01*
X129400Y42340D02*
X130200Y42340D01*
X129800Y41940D02*
X129800Y42740D01*
X196190Y69910D02*
X196190Y70710D01*
X195790Y70310D02*
X196590Y70310D01*
X102620Y99530D02*
X103420Y99530D01*
X103020Y99130D02*
X103020Y99930D01*
X96440Y23420D02*
X96440Y24220D01*
X96040Y23820D02*
X96840Y23820D01*
X200930Y65170D02*
X200930Y65970D01*
X200530Y65570D02*
X201330Y65570D01*
X151016Y36800D02*
G75*
D01*
G02X151016Y36800I444J0*
G01*
X153556Y36800D02*
G75*
D01*
G02X153556Y36800I444J0*
G01*
X193950Y44250D02*
X194850Y44250D01*
X194850Y45150D01*
X193950Y45150D01*
X193950Y44250D01*
X193950Y41750D02*
X194850Y41750D01*
X194850Y42650D01*
X193950Y42650D01*
X193950Y41750D01*
X50956Y72700D02*
G75*
D01*
G02X50956Y72700I444J0*
G01*
X50956Y75240D02*
G75*
D01*
G02X50956Y75240I444J0*
G01*
X139150Y114650D02*
X140050Y114650D01*
X140050Y115550D01*
X139150Y115550D01*
X139150Y114650D01*
X126150Y114650D02*
X127050Y114650D01*
X127050Y115550D01*
X126150Y115550D01*
X126150Y114650D01*
X139050Y105950D02*
X139950Y105950D01*
X139950Y106850D01*
X139050Y106850D01*
X139050Y105950D01*
X126050Y105950D02*
X126950Y105950D01*
X126950Y106850D01*
X126050Y106850D01*
X126050Y105950D01*
X139050Y97250D02*
X139950Y97250D01*
X139950Y98150D01*
X139050Y98150D01*
X139050Y97250D01*
X126050Y97250D02*
X126950Y97250D01*
X126950Y98150D01*
X126050Y98150D01*
X126050Y97250D01*
X52003Y99603D02*
X52997Y99603D01*
X52500Y100452D01*
X52003Y99603D01*
X54596Y100100D02*
G75*
D01*
G02X54596Y100100I444J0*
G01*
X111450Y104630D02*
X111450Y105430D01*
X111050Y105030D02*
X111850Y105030D01*
X127370Y162730D02*
X128170Y162730D01*
X127770Y162330D02*
X127770Y163130D01*
X92720Y53580D02*
X92720Y54380D01*
X92320Y53980D02*
X93120Y53980D01*
X109720Y69340D02*
X110520Y69340D01*
X110120Y68940D02*
X110120Y69740D01*
X130660Y86070D02*
X130660Y86870D01*
X130260Y86470D02*
X131060Y86470D01*
X104335Y132815D02*
X105235Y132815D01*
X105235Y133715D01*
X104335Y133715D01*
X104335Y132815D01*
X104335Y119815D02*
X105235Y119815D01*
X105235Y120715D01*
X104335Y120715D01*
X104335Y119815D01*
X119550Y51350D02*
X120450Y51350D01*
X120450Y52250D01*
X119550Y52250D01*
X119550Y51350D01*
X117050Y51350D02*
X117950Y51350D01*
X117950Y52250D01*
X117050Y52250D01*
X117050Y51350D01*
X41550Y129450D02*
X42450Y129450D01*
X42450Y130350D01*
X41550Y130350D01*
X41550Y129450D01*
X41550Y142450D02*
X42450Y142450D01*
X42450Y143350D01*
X41550Y143350D01*
X41550Y142450D01*
X78420Y132330D02*
X79320Y132330D01*
X79320Y133230D01*
X78420Y133230D01*
X78420Y132330D01*
X78420Y145330D02*
X79320Y145330D01*
X79320Y146230D01*
X78420Y146230D01*
X78420Y145330D01*
X29850Y129450D02*
X30750Y129450D01*
X30750Y130350D01*
X29850Y130350D01*
X29850Y129450D01*
X29850Y142450D02*
X30750Y142450D01*
X30750Y143350D01*
X29850Y143350D01*
X29850Y142450D01*
X65350Y129450D02*
X66250Y129450D01*
X66250Y130350D01*
X65350Y130350D01*
X65350Y129450D01*
X65350Y142450D02*
X66250Y142450D01*
X66250Y143350D01*
X65350Y143350D01*
X65350Y142450D01*
X32250Y80350D02*
X33150Y80350D01*
X33150Y81250D01*
X32250Y81250D01*
X32250Y80350D01*
X32250Y93350D02*
X33150Y93350D01*
X33150Y94250D01*
X32250Y94250D01*
X32250Y93350D01*
X28550Y77850D02*
X29450Y77850D01*
X29450Y78750D01*
X28550Y78750D01*
X28550Y77850D01*
X28550Y90850D02*
X29450Y90850D01*
X29450Y91750D01*
X28550Y91750D01*
X28550Y90850D01*
X53450Y129450D02*
X54350Y129450D01*
X54350Y130350D01*
X53450Y130350D01*
X53450Y129450D01*
X53450Y142450D02*
X54350Y142450D01*
X54350Y143350D01*
X53450Y143350D01*
X53450Y142450D01*
X84256Y125700D02*
G75*
D01*
G02X84256Y125700I444J0*
G01*
X86796Y125700D02*
G75*
D01*
G02X86796Y125700I444J0*
G01*
X174850Y86370D02*
X175650Y86370D01*
X175250Y85970D02*
X175250Y86770D01*
X117720Y69340D02*
X118520Y69340D01*
X118120Y68940D02*
X118120Y69740D01*
X83780Y53660D02*
X83780Y54460D01*
X83380Y54060D02*
X84180Y54060D01*
X176640Y21920D02*
X176640Y22720D01*
X176240Y22320D02*
X177040Y22320D01*
X190540Y94780D02*
X191340Y94780D01*
X190940Y94380D02*
X190940Y95180D01*
X56260Y137980D02*
X57060Y137980D01*
X56660Y137580D02*
X56660Y138380D01*
X211350Y133950D02*
X212250Y133950D01*
X212250Y134850D01*
X211350Y134850D01*
X211350Y133950D01*
X211350Y146950D02*
X212250Y146950D01*
X212250Y147850D01*
X211350Y147850D01*
X211350Y146950D01*
X224025Y146990D02*
X224925Y146990D01*
X224925Y147890D01*
X224025Y147890D01*
X224025Y146990D01*
X224025Y133990D02*
X224925Y133990D01*
X224925Y134890D01*
X224025Y134890D01*
X224025Y133990D01*
X133650Y85400D02*
X133650Y86200D01*
X133250Y85800D02*
X134050Y85800D01*
X139290Y64000D02*
X140090Y64000D01*
X139690Y63600D02*
X139690Y64400D01*
X70110Y104210D02*
X70910Y104210D01*
X70510Y103810D02*
X70510Y104610D01*
X133935Y47700D02*
X134835Y47700D01*
X134835Y48600D01*
X133935Y48600D01*
X133935Y47700D01*
X133935Y34700D02*
X134835Y34700D01*
X134835Y35600D01*
X133935Y35600D01*
X133935Y34700D01*
X207380Y107335D02*
X208180Y107335D01*
X207780Y106935D02*
X207780Y107735D01*
X258650Y109750D02*
X259550Y109750D01*
X259550Y110650D01*
X258650Y110650D01*
X258650Y109750D01*
X258650Y107250D02*
X259550Y107250D01*
X259550Y108150D01*
X258650Y108150D01*
X258650Y107250D01*
X258650Y127750D02*
X259550Y127750D01*
X259550Y128650D01*
X258650Y128650D01*
X258650Y127750D01*
X258650Y125250D02*
X259550Y125250D01*
X259550Y126150D01*
X258650Y126150D01*
X258650Y125250D01*
X248388Y138800D02*
G75*
D01*
G02X248388Y138800I444J0*
G01*
X245848Y138800D02*
G75*
D01*
G02X245848Y138800I444J0*
G01*
X171050Y42350D02*
X171950Y42350D01*
X171950Y43250D01*
X171050Y43250D01*
X171050Y42350D01*
X171050Y44850D02*
X171950Y44850D01*
X171950Y45750D01*
X171050Y45750D01*
X171050Y44850D01*
X246650Y118750D02*
X247550Y118750D01*
X247550Y119650D01*
X246650Y119650D01*
X246650Y118750D01*
X246650Y121250D02*
X247550Y121250D01*
X247550Y122150D01*
X246650Y122150D01*
X246650Y121250D01*
X244150Y113650D02*
X245050Y113650D01*
X245050Y114550D01*
X244150Y114550D01*
X244150Y113650D01*
X246650Y113650D02*
X247550Y113650D01*
X247550Y114550D01*
X246650Y114550D01*
X246650Y113650D01*
X240150Y108250D02*
X241050Y108250D01*
X241050Y109150D01*
X240150Y109150D01*
X240150Y108250D01*
X253150Y108250D02*
X254050Y108250D01*
X254050Y109150D01*
X253150Y109150D01*
X253150Y108250D01*
X226650Y109550D02*
X227550Y109550D01*
X227550Y110450D01*
X226650Y110450D01*
X226650Y109550D01*
X226650Y122550D02*
X227550Y122550D01*
X227550Y123450D01*
X226650Y123450D01*
X226650Y122550D01*
X236410Y108260D02*
X237310Y108260D01*
X237310Y109160D01*
X236410Y109160D01*
X236410Y108260D01*
X236410Y121260D02*
X237310Y121260D01*
X237310Y122160D01*
X236410Y122160D01*
X236410Y121260D01*
X230850Y122550D02*
X231750Y122550D01*
X231750Y123450D01*
X230850Y123450D01*
X230850Y122550D01*
X230850Y109550D02*
X231750Y109550D01*
X231750Y110450D01*
X230850Y110450D01*
X230850Y109550D01*
X223020Y114910D02*
X223820Y114910D01*
X223420Y114510D02*
X223420Y115310D01*
X137005Y138085D02*
X137005Y138885D01*
X136605Y138485D02*
X137405Y138485D01*
X192565Y138485D02*
X193365Y138485D01*
X192965Y138085D02*
X192965Y138885D01*
X196660Y151390D02*
X196660Y152190D01*
X196260Y151790D02*
X197060Y151790D01*
X276836Y111540D02*
G75*
D01*
G02X276836Y111540I444J0*
G01*
X284456Y116620D02*
G75*
D01*
G02X284456Y116620I444J0*
G01*
X276836Y114080D02*
G75*
D01*
G02X276836Y114080I444J0*
G01*
X284456Y114080D02*
G75*
D01*
G02X284456Y114080I444J0*
G01*
X284456Y111540D02*
G75*
D01*
G02X284456Y111540I444J0*
G01*
X276836Y109000D02*
G75*
D01*
G02X276836Y109000I444J0*
G01*
X276836Y116620D02*
G75*
D01*
G02X276836Y116620I444J0*
G01*
X284456Y109000D02*
G75*
D01*
G02X284456Y109000I444J0*
G01*
X271150Y111050D02*
X272050Y111050D01*
X272050Y111950D01*
X271150Y111950D01*
X271150Y111050D01*
X273650Y111050D02*
X274550Y111050D01*
X274550Y111950D01*
X273650Y111950D01*
X273650Y111050D01*
X169420Y158340D02*
X170220Y158340D01*
X169820Y157940D02*
X169820Y158740D01*
X157385Y142005D02*
X158185Y142005D01*
X157785Y141605D02*
X157785Y142405D01*
X171920Y149140D02*
X171920Y149940D01*
X171520Y149540D02*
X172320Y149540D01*
X39900Y13930D02*
X39900Y14730D01*
X39500Y14330D02*
X40300Y14330D01*
X204940Y86670D02*
X204940Y87470D01*
X204540Y87070D02*
X205340Y87070D01*
X84490Y64210D02*
X84490Y65010D01*
X84090Y64610D02*
X84890Y64610D01*
X204545Y80735D02*
X205345Y80735D01*
X204945Y80335D02*
X204945Y81135D01*
X150520Y10170D02*
X151320Y10170D01*
X150920Y9770D02*
X150920Y10570D01*
X118820Y10350D02*
X119620Y10350D01*
X119220Y9950D02*
X119220Y10750D01*
X165300Y85770D02*
X165300Y86570D01*
X164900Y86170D02*
X165700Y86170D01*
X120520Y42880D02*
X121320Y42880D01*
X120920Y42480D02*
X120920Y43280D01*
X78270Y73100D02*
X79070Y73100D01*
X78670Y72700D02*
X78670Y73500D01*
X104790Y115500D02*
X105590Y115500D01*
X105190Y115100D02*
X105190Y115900D01*
X209603Y83703D02*
X210597Y83703D01*
X210100Y84552D01*
X209603Y83703D01*
X212196Y84200D02*
G75*
D01*
G02X212196Y84200I444J0*
G01*
X40676Y35600D02*
G75*
D01*
G02X40676Y35600I444J0*
G01*
X43216Y35600D02*
G75*
D01*
G02X43216Y35600I444J0*
G01*
X45703Y35103D02*
X46697Y35103D01*
X46200Y35952D01*
X45703Y35103D01*
X38136Y35600D02*
G75*
D01*
G02X38136Y35600I444J0*
G01*
X210611Y45265D02*
G75*
D01*
G02X210611Y45265I444J0*
G01*
X202991Y37645D02*
G75*
D01*
G02X202991Y37645I444J0*
G01*
X202991Y42725D02*
G75*
D01*
G02X202991Y42725I444J0*
G01*
X202991Y40185D02*
G75*
D01*
G02X202991Y40185I444J0*
G01*
X202991Y35105D02*
G75*
D01*
G02X202991Y35105I444J0*
G01*
X202991Y32565D02*
G75*
D01*
G02X202991Y32565I444J0*
G01*
X202991Y30025D02*
G75*
D01*
G02X202991Y30025I444J0*
G01*
X210611Y30025D02*
G75*
D01*
G02X210611Y30025I444J0*
G01*
X210611Y37645D02*
G75*
D01*
G02X210611Y37645I444J0*
G01*
X210611Y42725D02*
G75*
D01*
G02X210611Y42725I444J0*
G01*
X210611Y40185D02*
G75*
D01*
G02X210611Y40185I444J0*
G01*
X210611Y35105D02*
G75*
D01*
G02X210611Y35105I444J0*
G01*
X210611Y32565D02*
G75*
D01*
G02X210611Y32565I444J0*
G01*
X202991Y45265D02*
G75*
D01*
G02X202991Y45265I444J0*
G01*
X216050Y35050D02*
X216950Y35050D01*
X216950Y35950D01*
X216050Y35950D01*
X216050Y35050D01*
X216050Y22050D02*
X216950Y22050D01*
X216950Y22950D01*
X216050Y22950D01*
X216050Y22050D01*
X215950Y42350D02*
X216850Y42350D01*
X216850Y43250D01*
X215950Y43250D01*
X215950Y42350D01*
X215950Y44850D02*
X216850Y44850D01*
X216850Y45750D01*
X215950Y45750D01*
X215950Y44850D01*
X202950Y50650D02*
X203850Y50650D01*
X203850Y51550D01*
X202950Y51550D01*
X202950Y50650D01*
X215950Y50650D02*
X216850Y50650D01*
X216850Y51550D01*
X215950Y51550D01*
X215950Y50650D01*
X197950Y54750D02*
X198850Y54750D01*
X198850Y55650D01*
X197950Y55650D01*
X197950Y54750D01*
X197950Y41750D02*
X198850Y41750D01*
X198850Y42650D01*
X197950Y42650D01*
X197950Y41750D01*
X194250Y53650D02*
X195150Y53650D01*
X195150Y54550D01*
X194250Y54550D01*
X194250Y53650D01*
X194250Y56150D02*
X195150Y56150D01*
X195150Y57050D01*
X194250Y57050D01*
X194250Y56150D01*
X157350Y57750D02*
X158250Y57750D01*
X158250Y58650D01*
X157350Y58650D01*
X157350Y57750D01*
X157350Y60250D02*
X158250Y60250D01*
X158250Y61150D01*
X157350Y61150D01*
X157350Y60250D01*
X164850Y65950D02*
X165750Y65950D01*
X165750Y66850D01*
X164850Y66850D01*
X164850Y65950D01*
X164850Y68450D02*
X165750Y68450D01*
X165750Y69350D01*
X164850Y69350D01*
X164850Y68450D01*
X172750Y48850D02*
X173650Y48850D01*
X173650Y49750D01*
X172750Y49750D01*
X172750Y48850D01*
X159750Y48850D02*
X160650Y48850D01*
X160650Y49750D01*
X159750Y49750D01*
X159750Y48850D01*
X174650Y56150D02*
X175550Y56150D01*
X175550Y57050D01*
X174650Y57050D01*
X174650Y56150D01*
X161650Y56150D02*
X162550Y56150D01*
X162550Y57050D01*
X161650Y57050D01*
X161650Y56150D01*
X190250Y56150D02*
X191150Y56150D01*
X191150Y57050D01*
X190250Y57050D01*
X190250Y56150D01*
X177250Y56150D02*
X178150Y56150D01*
X178150Y57050D01*
X177250Y57050D01*
X177250Y56150D01*
X169793Y32000D02*
G75*
D01*
G02X169793Y32000I444J0*
G01*
X167253Y32000D02*
G75*
D01*
G02X167253Y32000I444J0*
G01*
X172280Y31503D02*
X173275Y31503D01*
X172777Y32352D01*
X172280Y31503D01*
X144265Y66000D02*
X145165Y66000D01*
X145165Y66900D01*
X144265Y66900D01*
X144265Y66000D01*
X157265Y66000D02*
X158165Y66000D01*
X158165Y66900D01*
X157265Y66900D01*
X157265Y66000D01*
X144150Y69750D02*
X145050Y69750D01*
X145050Y70650D01*
X144150Y70650D01*
X144150Y69750D01*
X131150Y69750D02*
X132050Y69750D01*
X132050Y70650D01*
X131150Y70650D01*
X131150Y69750D01*
X137550Y61050D02*
X138450Y61050D01*
X138450Y61950D01*
X137550Y61950D01*
X137550Y61050D01*
X124550Y61050D02*
X125450Y61050D01*
X125450Y61950D01*
X124550Y61950D01*
X124550Y61050D01*
X162450Y26150D02*
X163350Y26150D01*
X163350Y27050D01*
X162450Y27050D01*
X162450Y26150D01*
X149450Y26150D02*
X150350Y26150D01*
X150350Y27050D01*
X149450Y27050D01*
X149450Y26150D01*
X138496Y28800D02*
G75*
D01*
G02X138496Y28800I444J0*
G01*
X135903Y28303D02*
X136897Y28303D01*
X136400Y29152D01*
X135903Y28303D01*
X141036Y28800D02*
G75*
D01*
G02X141036Y28800I444J0*
G01*
X138475Y47875D02*
X139375Y47875D01*
X139375Y48775D01*
X138475Y48775D01*
X138475Y47875D01*
X138475Y34875D02*
X139375Y34875D01*
X139375Y35775D01*
X138475Y35775D01*
X138475Y34875D01*
X151936Y60710D02*
G75*
D01*
G02X151936Y60710I444J0*
G01*
X144316Y53090D02*
G75*
D01*
G02X144316Y53090I444J0*
G01*
X144316Y58170D02*
G75*
D01*
G02X144316Y58170I444J0*
G01*
X144316Y55630D02*
G75*
D01*
G02X144316Y55630I444J0*
G01*
X144316Y50550D02*
G75*
D01*
G02X144316Y50550I444J0*
G01*
X144316Y48010D02*
G75*
D01*
G02X144316Y48010I444J0*
G01*
X144316Y45470D02*
G75*
D01*
G02X144316Y45470I444J0*
G01*
X151936Y45470D02*
G75*
D01*
G02X151936Y45470I444J0*
G01*
X151936Y53090D02*
G75*
D01*
G02X151936Y53090I444J0*
G01*
X151936Y58170D02*
G75*
D01*
G02X151936Y58170I444J0*
G01*
X151936Y55630D02*
G75*
D01*
G02X151936Y55630I444J0*
G01*
X151936Y50550D02*
G75*
D01*
G02X151936Y50550I444J0*
G01*
X151936Y48010D02*
G75*
D01*
G02X151936Y48010I444J0*
G01*
X144316Y60710D02*
G75*
D01*
G02X144316Y60710I444J0*
G01*
X130550Y44650D02*
X131450Y44650D01*
X131450Y45550D01*
X130550Y45550D01*
X130550Y44650D01*
X130550Y57650D02*
X131450Y57650D01*
X131450Y58550D01*
X130550Y58550D01*
X130550Y57650D01*
X124250Y57750D02*
X125150Y57750D01*
X125150Y58650D01*
X124250Y58650D01*
X124250Y57750D01*
X124250Y44750D02*
X125150Y44750D01*
X125150Y45650D01*
X124250Y45650D01*
X124250Y44750D01*
X111616Y51765D02*
G75*
D01*
G02X111616Y51765I444J0*
G01*
X103996Y44145D02*
G75*
D01*
G02X103996Y44145I444J0*
G01*
X103996Y49225D02*
G75*
D01*
G02X103996Y49225I444J0*
G01*
X103996Y46685D02*
G75*
D01*
G02X103996Y46685I444J0*
G01*
X103996Y41605D02*
G75*
D01*
G02X103996Y41605I444J0*
G01*
X103996Y39065D02*
G75*
D01*
G02X103996Y39065I444J0*
G01*
X103996Y36525D02*
G75*
D01*
G02X103996Y36525I444J0*
G01*
X111616Y36525D02*
G75*
D01*
G02X111616Y36525I444J0*
G01*
X111616Y44145D02*
G75*
D01*
G02X111616Y44145I444J0*
G01*
X111616Y49225D02*
G75*
D01*
G02X111616Y49225I444J0*
G01*
X111616Y46685D02*
G75*
D01*
G02X111616Y46685I444J0*
G01*
X111616Y41605D02*
G75*
D01*
G02X111616Y41605I444J0*
G01*
X111616Y39065D02*
G75*
D01*
G02X111616Y39065I444J0*
G01*
X103996Y51765D02*
G75*
D01*
G02X103996Y51765I444J0*
G01*
X118350Y29850D02*
X119250Y29850D01*
X119250Y30750D01*
X118350Y30750D01*
X118350Y29850D01*
X105350Y29850D02*
X106250Y29850D01*
X106250Y30750D01*
X105350Y30750D01*
X105350Y29850D01*
X104050Y56750D02*
X104950Y56750D01*
X104950Y57650D01*
X104050Y57650D01*
X104050Y56750D01*
X117050Y56750D02*
X117950Y56750D01*
X117950Y57650D01*
X117050Y57650D01*
X117050Y56750D01*
X86195Y43565D02*
X87095Y43565D01*
X87095Y44465D01*
X86195Y44465D01*
X86195Y43565D01*
X99195Y43565D02*
X100095Y43565D01*
X100095Y44465D01*
X99195Y44465D01*
X99195Y43565D01*
X99350Y39325D02*
X100250Y39325D01*
X100250Y40225D01*
X99350Y40225D01*
X99350Y39325D01*
X86350Y39325D02*
X87250Y39325D01*
X87250Y40225D01*
X86350Y40225D01*
X86350Y39325D01*
X86185Y47935D02*
X87085Y47935D01*
X87085Y48835D01*
X86185Y48835D01*
X86185Y47935D01*
X99185Y47935D02*
X100085Y47935D01*
X100085Y48835D01*
X99185Y48835D01*
X99185Y47935D01*
X99150Y56650D02*
X100050Y56650D01*
X100050Y57550D01*
X99150Y57550D01*
X99150Y56650D01*
X86150Y56650D02*
X87050Y56650D01*
X87050Y57550D01*
X86150Y57550D01*
X86150Y56650D01*
X86396Y28700D02*
G75*
D01*
G02X86396Y28700I444J0*
G01*
X83803Y28203D02*
X84797Y28203D01*
X84300Y29052D01*
X83803Y28203D01*
X88936Y28700D02*
G75*
D01*
G02X88936Y28700I444J0*
G01*
X32150Y61550D02*
X33050Y61550D01*
X33050Y62450D01*
X32150Y62450D01*
X32150Y61550D01*
X45150Y61550D02*
X46050Y61550D01*
X46050Y62450D01*
X45150Y62450D01*
X45150Y61550D01*
X14350Y57550D02*
X15250Y57550D01*
X15250Y58450D01*
X14350Y58450D01*
X14350Y57550D01*
X14350Y44550D02*
X15250Y44550D01*
X15250Y45450D01*
X14350Y45450D01*
X14350Y44550D01*
X49436Y107800D02*
G75*
D01*
G02X49436Y107800I444J0*
G01*
X46896Y107800D02*
G75*
D01*
G02X46896Y107800I444J0*
G01*
X44303Y107303D02*
X45297Y107303D01*
X44800Y108152D01*
X44303Y107303D01*
X51976Y107800D02*
G75*
D01*
G02X51976Y107800I444J0*
G01*
X87550Y101150D02*
X88450Y101150D01*
X88450Y102050D01*
X87550Y102050D01*
X87550Y101150D01*
X87550Y88150D02*
X88450Y88150D01*
X88450Y89050D01*
X87550Y89050D01*
X87550Y88150D01*
X83050Y101150D02*
X83950Y101150D01*
X83950Y102050D01*
X83050Y102050D01*
X83050Y101150D01*
X83050Y88150D02*
X83950Y88150D01*
X83950Y89050D01*
X83050Y89050D01*
X83050Y88150D01*
X92050Y101150D02*
X92950Y101150D01*
X92950Y102050D01*
X92050Y102050D01*
X92050Y101150D01*
X92050Y88150D02*
X92950Y88150D01*
X92950Y89050D01*
X92050Y89050D01*
X92050Y88150D01*
X78450Y101150D02*
X79350Y101150D01*
X79350Y102050D01*
X78450Y102050D01*
X78450Y101150D01*
X78450Y88150D02*
X79350Y88150D01*
X79350Y89050D01*
X78450Y89050D01*
X78450Y88150D01*
X78450Y116910D02*
X79350Y116910D01*
X79350Y117810D01*
X78450Y117810D01*
X78450Y116910D01*
X78450Y106750D02*
X79350Y106750D01*
X79350Y107650D01*
X78450Y107650D01*
X78450Y106750D01*
X83050Y116910D02*
X83950Y116910D01*
X83950Y117810D01*
X83050Y117810D01*
X83050Y116910D01*
X83050Y106750D02*
X83950Y106750D01*
X83950Y107650D01*
X83050Y107650D01*
X83050Y106750D01*
X87550Y116910D02*
X88450Y116910D01*
X88450Y117810D01*
X87550Y117810D01*
X87550Y116910D01*
X87550Y106750D02*
X88450Y106750D01*
X88450Y107650D01*
X87550Y107650D01*
X87550Y106750D01*
X92050Y116910D02*
X92950Y116910D01*
X92950Y117810D01*
X92050Y117810D01*
X92050Y116910D01*
X92050Y106750D02*
X92950Y106750D01*
X92950Y107650D01*
X92050Y107650D01*
X92050Y106750D01*
X97350Y116950D02*
X98250Y116950D01*
X98250Y117850D01*
X97350Y117850D01*
X97350Y116950D01*
X97350Y103950D02*
X98250Y103950D01*
X98250Y104850D01*
X97350Y104850D01*
X97350Y103950D01*
X53850Y81850D02*
X54750Y81850D01*
X54750Y82750D01*
X53850Y82750D01*
X53850Y81850D01*
X66850Y81850D02*
X67750Y81850D01*
X67750Y82750D01*
X66850Y82750D01*
X66850Y81850D01*
X133236Y152100D02*
G75*
D01*
G02X133236Y152100I444J0*
G01*
X128103Y151603D02*
X129097Y151603D01*
X128600Y152452D01*
X128103Y151603D01*
X130696Y152100D02*
G75*
D01*
G02X130696Y152100I444J0*
G01*
X148476Y152100D02*
G75*
D01*
G02X148476Y152100I444J0*
G01*
X140856Y152100D02*
G75*
D01*
G02X140856Y152100I444J0*
G01*
X135776Y152100D02*
G75*
D01*
G02X135776Y152100I444J0*
G01*
X138316Y152100D02*
G75*
D01*
G02X138316Y152100I444J0*
G01*
X143396Y152100D02*
G75*
D01*
G02X143396Y152100I444J0*
G01*
X145936Y152100D02*
G75*
D01*
G02X145936Y152100I444J0*
G01*
X156096Y152100D02*
G75*
D01*
G02X156096Y152100I444J0*
G01*
X151016Y152100D02*
G75*
D01*
G02X151016Y152100I444J0*
G01*
X153556Y152100D02*
G75*
D01*
G02X153556Y152100I444J0*
G01*
X172050Y144950D02*
X172950Y144950D01*
X172950Y145850D01*
X172050Y145850D01*
X172050Y144950D01*
X159050Y144950D02*
X159950Y144950D01*
X159950Y145850D01*
X159050Y145850D01*
X159050Y144950D01*
X179796Y152000D02*
G75*
D01*
G02X179796Y152000I444J0*
G01*
X177203Y151503D02*
X178197Y151503D01*
X177700Y152352D01*
X177203Y151503D01*
X182336Y152000D02*
G75*
D01*
G02X182336Y152000I444J0*
G01*
X187416Y152000D02*
G75*
D01*
G02X187416Y152000I444J0*
G01*
X184876Y152000D02*
G75*
D01*
G02X184876Y152000I444J0*
G01*
X189956Y152000D02*
G75*
D01*
G02X189956Y152000I444J0*
G01*
X18156Y106480D02*
G75*
D01*
G02X18156Y106480I444J0*
G01*
X18156Y103940D02*
G75*
D01*
G02X18156Y103940I444J0*
G01*
X18103Y100903D02*
X19097Y100903D01*
X18600Y101752D01*
X18103Y100903D01*
X18156Y109020D02*
G75*
D01*
G02X18156Y109020I444J0*
G01*
X46856Y97580D02*
G75*
D01*
G02X46856Y97580I444J0*
G01*
X46856Y95040D02*
G75*
D01*
G02X46856Y95040I444J0*
G01*
X46803Y92003D02*
X47797Y92003D01*
X47300Y92852D01*
X46803Y92003D01*
X46856Y100120D02*
G75*
D01*
G02X46856Y100120I444J0*
G01*
X61136Y149700D02*
G75*
D01*
G02X61136Y149700I444J0*
G01*
X58596Y149700D02*
G75*
D01*
G02X58596Y149700I444J0*
G01*
X56003Y149203D02*
X56997Y149203D01*
X56500Y150052D01*
X56003Y149203D01*
X63676Y149700D02*
G75*
D01*
G02X63676Y149700I444J0*
G01*
X44216Y149719D02*
G75*
D01*
G02X44216Y149719I445J0*
G01*
X41676Y149719D02*
G75*
D01*
G02X41676Y149719I445J0*
G01*
X39083Y149222D02*
X40078Y149222D01*
X39581Y150071D01*
X39083Y149222D01*
X46756Y149719D02*
G75*
D01*
G02X46756Y149719I445J0*
G01*
X18256Y29780D02*
G75*
D01*
G02X18256Y29780I444J0*
G01*
X18256Y27240D02*
G75*
D01*
G02X18256Y27240I444J0*
G01*
X18203Y24203D02*
X19197Y24203D01*
X18700Y25052D01*
X18203Y24203D01*
X18256Y32320D02*
G75*
D01*
G02X18256Y32320I444J0*
G01*
X66436Y30000D02*
G75*
D01*
G02X66436Y30000I444J0*
G01*
X63896Y30000D02*
G75*
D01*
G02X63896Y30000I444J0*
G01*
X61303Y29503D02*
X62297Y29503D01*
X61800Y30352D01*
X61303Y29503D01*
X68976Y30000D02*
G75*
D01*
G02X68976Y30000I444J0*
G01*
X113050Y126950D02*
X113950Y126950D01*
X113950Y127850D01*
X113050Y127850D01*
X113050Y126950D01*
X126050Y126950D02*
X126950Y126950D01*
X126950Y127850D01*
X126050Y127850D01*
X126050Y126950D01*
X126050Y121550D02*
X126950Y121550D01*
X126950Y122450D01*
X126050Y122450D01*
X126050Y121550D01*
X113050Y121550D02*
X113950Y121550D01*
X113950Y122450D01*
X113050Y122450D01*
X113050Y121550D01*
X18156Y137080D02*
G75*
D01*
G02X18156Y137080I444J0*
G01*
X18156Y134540D02*
G75*
D01*
G02X18156Y134540I444J0*
G01*
X18103Y131503D02*
X19097Y131503D01*
X18600Y132352D01*
X18103Y131503D01*
X18156Y139620D02*
G75*
D01*
G02X18156Y139620I444J0*
G01*
X18103Y93303D02*
X19097Y93303D01*
X18600Y94152D01*
X18103Y93303D01*
X18156Y91260D02*
G75*
D01*
G02X18156Y91260I444J0*
G01*
X144850Y92650D02*
X145750Y92650D01*
X145750Y93550D01*
X144850Y93550D01*
X144850Y92650D01*
X157850Y92650D02*
X158750Y92650D01*
X158750Y93550D01*
X157850Y93550D01*
X157850Y92650D01*
X144850Y96250D02*
X145750Y96250D01*
X145750Y97150D01*
X144850Y97150D01*
X144850Y96250D01*
X157850Y96250D02*
X158750Y96250D01*
X158750Y97150D01*
X157850Y97150D01*
X157850Y96250D01*
X144830Y99700D02*
X145730Y99700D01*
X145730Y100600D01*
X144830Y100600D01*
X144830Y99700D01*
X157830Y99700D02*
X158730Y99700D01*
X158730Y100600D01*
X157830Y100600D01*
X157830Y99700D01*
X144800Y103310D02*
X145700Y103310D01*
X145700Y104210D01*
X144800Y104210D01*
X144800Y103310D01*
X157800Y103310D02*
X158700Y103310D01*
X158700Y104210D01*
X157800Y104210D01*
X157800Y103310D01*
X144880Y106955D02*
X145780Y106955D01*
X145780Y107855D01*
X144880Y107855D01*
X144880Y106955D01*
X157880Y106955D02*
X158780Y106955D01*
X158780Y107855D01*
X157880Y107855D01*
X157880Y106955D01*
X144865Y110445D02*
X145765Y110445D01*
X145765Y111345D01*
X144865Y111345D01*
X144865Y110445D01*
X157865Y110445D02*
X158765Y110445D01*
X158765Y111345D01*
X157865Y111345D01*
X157865Y110445D01*
X141150Y116450D02*
X142050Y116450D01*
X142050Y117350D01*
X141150Y117350D01*
X141150Y116450D01*
X154150Y116450D02*
X155050Y116450D01*
X155050Y117350D01*
X154150Y117350D01*
X154150Y116450D01*
X198656Y22500D02*
G75*
D01*
G02X198656Y22500I444J0*
G01*
X201196Y22500D02*
G75*
D01*
G02X201196Y22500I444J0*
G01*
X138276Y55240D02*
G75*
D01*
G02X138276Y55240I444J0*
G01*
X138223Y57283D02*
X139217Y57283D01*
X138720Y58132D01*
X138223Y57283D01*
X138276Y52700D02*
G75*
D01*
G02X138276Y52700I444J0*
G01*
X123876Y28700D02*
G75*
D01*
G02X123876Y28700I444J0*
G01*
X126416Y28700D02*
G75*
D01*
G02X126416Y28700I444J0*
G01*
X128903Y28203D02*
X129897Y28203D01*
X129400Y29052D01*
X128903Y28203D01*
X121336Y28700D02*
G75*
D01*
G02X121336Y28700I444J0*
G01*
X97856Y32800D02*
G75*
D01*
G02X97856Y32800I444J0*
G01*
X97856Y30260D02*
G75*
D01*
G02X97856Y30260I444J0*
G01*
X25056Y62000D02*
G75*
D01*
G02X25056Y62000I444J0*
G01*
X22516Y62000D02*
G75*
D01*
G02X22516Y62000I444J0*
G01*
X164256Y99760D02*
G75*
D01*
G02X164256Y99760I444J0*
G01*
X164256Y115000D02*
G75*
D01*
G02X164256Y115000I444J0*
G01*
X164256Y122620D02*
G75*
D01*
G02X164256Y122620I444J0*
G01*
X164203Y127203D02*
X165197Y127203D01*
X164700Y128052D01*
X164203Y127203D01*
X164256Y125160D02*
G75*
D01*
G02X164256Y125160I444J0*
G01*
X164256Y120080D02*
G75*
D01*
G02X164256Y120080I444J0*
G01*
X164256Y117540D02*
G75*
D01*
G02X164256Y117540I444J0*
G01*
X164256Y107380D02*
G75*
D01*
G02X164256Y107380I444J0*
G01*
X164256Y112460D02*
G75*
D01*
G02X164256Y112460I444J0*
G01*
X164256Y109920D02*
G75*
D01*
G02X164256Y109920I444J0*
G01*
X164256Y102300D02*
G75*
D01*
G02X164256Y102300I444J0*
G01*
X164256Y104840D02*
G75*
D01*
G02X164256Y104840I444J0*
G01*
X164256Y94680D02*
G75*
D01*
G02X164256Y94680I444J0*
G01*
X164256Y97220D02*
G75*
D01*
G02X164256Y97220I444J0*
G01*
X115136Y73100D02*
G75*
D01*
G02X115136Y73100I444J0*
G01*
X97356Y73100D02*
G75*
D01*
G02X97356Y73100I444J0*
G01*
X89736Y73100D02*
G75*
D01*
G02X89736Y73100I444J0*
G01*
X84603Y72603D02*
X85597Y72603D01*
X85100Y73452D01*
X84603Y72603D01*
X87196Y73100D02*
G75*
D01*
G02X87196Y73100I444J0*
G01*
X92276Y73100D02*
G75*
D01*
G02X92276Y73100I444J0*
G01*
X94816Y73100D02*
G75*
D01*
G02X94816Y73100I444J0*
G01*
X104976Y73100D02*
G75*
D01*
G02X104976Y73100I444J0*
G01*
X99896Y73100D02*
G75*
D01*
G02X99896Y73100I444J0*
G01*
X102436Y73100D02*
G75*
D01*
G02X102436Y73100I444J0*
G01*
X112596Y73100D02*
G75*
D01*
G02X112596Y73100I444J0*
G01*
X107516Y73100D02*
G75*
D01*
G02X107516Y73100I444J0*
G01*
X110056Y73100D02*
G75*
D01*
G02X110056Y73100I444J0*
G01*
X120216Y73100D02*
G75*
D01*
G02X120216Y73100I444J0*
G01*
X117676Y73100D02*
G75*
D01*
G02X117676Y73100I444J0*
G01*
X201961Y97205D02*
G75*
D01*
G02X201961Y97205I444J0*
G01*
X199368Y96708D02*
X200362Y96708D01*
X199865Y97557D01*
X199368Y96708D01*
X204501Y97205D02*
G75*
D01*
G02X204501Y97205I444J0*
G01*
X202336Y122575D02*
G75*
D01*
G02X202336Y122575I444J0*
G01*
X202283Y104298D02*
X203277Y104298D01*
X202780Y105147D01*
X202283Y104298D01*
X202336Y109875D02*
G75*
D01*
G02X202336Y109875I444J0*
G01*
X202336Y107335D02*
G75*
D01*
G02X202336Y107335I444J0*
G01*
X202336Y112415D02*
G75*
D01*
G02X202336Y112415I444J0*
G01*
X202336Y117495D02*
G75*
D01*
G02X202336Y117495I444J0*
G01*
X202336Y114955D02*
G75*
D01*
G02X202336Y114955I444J0*
G01*
X202336Y120035D02*
G75*
D01*
G02X202336Y120035I444J0*
G01*
X199103Y132303D02*
X200097Y132303D01*
X199600Y133152D01*
X199103Y132303D01*
X199156Y135340D02*
G75*
D01*
G02X199156Y135340I444J0*
G01*
X205356Y132760D02*
G75*
D01*
G02X205356Y132760I444J0*
G01*
X205303Y134803D02*
X206297Y134803D01*
X205800Y135652D01*
X205303Y134803D01*
X220285Y146930D02*
X221185Y146930D01*
X221185Y147830D01*
X220285Y147830D01*
X220285Y146930D01*
X220285Y133930D02*
X221185Y133930D01*
X221185Y134830D01*
X220285Y134830D01*
X220285Y133930D01*
X210350Y104350D02*
X211250Y104350D01*
X211250Y105250D01*
X210350Y105250D01*
X210350Y104350D01*
X223350Y104350D02*
X224250Y104350D01*
X224250Y105250D01*
X223350Y105250D01*
X223350Y104350D01*
X223450Y99950D02*
X224350Y99950D01*
X224350Y100850D01*
X223450Y100850D01*
X223450Y99950D01*
X210450Y99950D02*
X211350Y99950D01*
X211350Y100850D01*
X210450Y100850D01*
X210450Y99950D01*
X224450Y92550D02*
X225350Y92550D01*
X225350Y93450D01*
X224450Y93450D01*
X224450Y92550D01*
X224450Y79550D02*
X225350Y79550D01*
X225350Y80450D01*
X224450Y80450D01*
X224450Y79550D01*
X220550Y79550D02*
X221450Y79550D01*
X221450Y80450D01*
X220550Y80450D01*
X220550Y79550D01*
X220550Y92550D02*
X221450Y92550D01*
X221450Y93450D01*
X220550Y93450D01*
X220550Y92550D01*
X231450Y88950D02*
X232350Y88950D01*
X232350Y89850D01*
X231450Y89850D01*
X231450Y88950D01*
X231450Y91450D02*
X232350Y91450D01*
X232350Y92350D01*
X231450Y92350D01*
X231450Y91450D01*
X263950Y99250D02*
X264850Y99250D01*
X264850Y100150D01*
X263950Y100150D01*
X263950Y99250D01*
X250950Y99250D02*
X251850Y99250D01*
X251850Y100150D01*
X250950Y100150D01*
X250950Y99250D01*
X250950Y95350D02*
X251850Y95350D01*
X251850Y96250D01*
X250950Y96250D01*
X250950Y95350D01*
X263950Y95350D02*
X264850Y95350D01*
X264850Y96250D01*
X263950Y96250D01*
X263950Y95350D01*
X263965Y91290D02*
X264865Y91290D01*
X264865Y92190D01*
X263965Y92190D01*
X263965Y91290D01*
X250965Y91290D02*
X251865Y91290D01*
X251865Y92190D01*
X250965Y92190D01*
X250965Y91290D01*
X263450Y125250D02*
X264350Y125250D01*
X264350Y126150D01*
X263450Y126150D01*
X263450Y125250D01*
X263450Y112250D02*
X264350Y112250D01*
X264350Y113150D01*
X263450Y113150D01*
X263450Y112250D01*
X253550Y129550D02*
X254450Y129550D01*
X254450Y130450D01*
X253550Y130450D01*
X253550Y129550D01*
X240550Y129550D02*
X241450Y129550D01*
X241450Y130450D01*
X240550Y130450D01*
X240550Y129550D01*
X253550Y125850D02*
X254450Y125850D01*
X254450Y126750D01*
X253550Y126750D01*
X253550Y125850D01*
X240550Y125850D02*
X241450Y125850D01*
X241450Y126750D01*
X240550Y126750D01*
X240550Y125850D01*
X267803Y127803D02*
X268797Y127803D01*
X268300Y128652D01*
X267803Y127803D01*
X267856Y125760D02*
G75*
D01*
G02X267856Y125760I444J0*
G01*
X286650Y124950D02*
X287550Y124950D01*
X287550Y125850D01*
X286650Y125850D01*
X286650Y124950D01*
X273650Y124950D02*
X274550Y124950D01*
X274550Y125850D01*
X273650Y125850D01*
X273650Y124950D01*
X267850Y120950D02*
X268750Y120950D01*
X268750Y121850D01*
X267850Y121850D01*
X267850Y120950D01*
X280850Y120950D02*
X281750Y120950D01*
X281750Y121850D01*
X280850Y121850D01*
X280850Y120950D01*
X289550Y126650D02*
X290450Y126650D01*
X290450Y127550D01*
X289550Y127550D01*
X289550Y126650D01*
X289550Y113650D02*
X290450Y113650D01*
X290450Y114550D01*
X289550Y114550D01*
X289550Y113650D01*
X289550Y108550D02*
X290450Y108550D01*
X290450Y109450D01*
X289550Y109450D01*
X289550Y108550D01*
X289550Y95550D02*
X290450Y95550D01*
X290450Y96450D01*
X289550Y96450D01*
X289550Y95550D01*
X285150Y99350D02*
X286050Y99350D01*
X286050Y100250D01*
X285150Y100250D01*
X285150Y99350D01*
X272150Y99350D02*
X273050Y99350D01*
X273050Y100250D01*
X272150Y100250D01*
X272150Y99350D01*
X285150Y95550D02*
X286050Y95550D01*
X286050Y96450D01*
X285150Y96450D01*
X285150Y95550D01*
X272150Y95550D02*
X273050Y95550D01*
X273050Y96450D01*
X272150Y96450D01*
X272150Y95550D01*
X191950Y21650D02*
X192850Y21650D01*
X192850Y22550D01*
X191950Y22550D01*
X191950Y21650D01*
X191950Y34650D02*
X192850Y34650D01*
X192850Y35550D01*
X191950Y35550D01*
X191950Y34650D01*
X172116Y68910D02*
G75*
D01*
G02X172116Y68910I444J0*
G01*
X179736Y61290D02*
G75*
D01*
G02X179736Y61290I444J0*
G01*
X174656Y61290D02*
G75*
D01*
G02X174656Y61290I444J0*
G01*
X177196Y61290D02*
G75*
D01*
G02X177196Y61290I444J0*
G01*
X182276Y61290D02*
G75*
D01*
G02X182276Y61290I444J0*
G01*
X184816Y61290D02*
G75*
D01*
G02X184816Y61290I444J0*
G01*
X187356Y61290D02*
G75*
D01*
G02X187356Y61290I444J0*
G01*
X187356Y68910D02*
G75*
D01*
G02X187356Y68910I444J0*
G01*
X179736Y68910D02*
G75*
D01*
G02X179736Y68910I444J0*
G01*
X174656Y68910D02*
G75*
D01*
G02X174656Y68910I444J0*
G01*
X177196Y68910D02*
G75*
D01*
G02X177196Y68910I444J0*
G01*
X182276Y68910D02*
G75*
D01*
G02X182276Y68910I444J0*
G01*
X184816Y68910D02*
G75*
D01*
G02X184816Y68910I444J0*
G01*
X172116Y61290D02*
G75*
D01*
G02X172116Y61290I444J0*
G01*
X186476Y47900D02*
G75*
D01*
G02X186476Y47900I444J0*
G01*
X178856Y40280D02*
G75*
D01*
G02X178856Y40280I444J0*
G01*
X178856Y45360D02*
G75*
D01*
G02X178856Y45360I444J0*
G01*
X178856Y42820D02*
G75*
D01*
G02X178856Y42820I444J0*
G01*
X178856Y37740D02*
G75*
D01*
G02X178856Y37740I444J0*
G01*
X178856Y35200D02*
G75*
D01*
G02X178856Y35200I444J0*
G01*
X178856Y32660D02*
G75*
D01*
G02X178856Y32660I444J0*
G01*
X186476Y32660D02*
G75*
D01*
G02X186476Y32660I444J0*
G01*
X186476Y40280D02*
G75*
D01*
G02X186476Y40280I444J0*
G01*
X186476Y45360D02*
G75*
D01*
G02X186476Y45360I444J0*
G01*
X186476Y42820D02*
G75*
D01*
G02X186476Y42820I444J0*
G01*
X186476Y37740D02*
G75*
D01*
G02X186476Y37740I444J0*
G01*
X186476Y35200D02*
G75*
D01*
G02X186476Y35200I444J0*
G01*
X178856Y47900D02*
G75*
D01*
G02X178856Y47900I444J0*
G01*
X133685Y66615D02*
X134585Y66615D01*
X134585Y67515D01*
X133685Y67515D01*
X133685Y66615D01*
X131185Y66615D02*
X132085Y66615D01*
X132085Y67515D01*
X131185Y67515D01*
X131185Y66615D01*
X86150Y51050D02*
X87050Y51050D01*
X87050Y51950D01*
X86150Y51950D01*
X86150Y51050D01*
X86150Y53550D02*
X87050Y53550D01*
X87050Y54450D01*
X86150Y54450D01*
X86150Y53550D01*
X243956Y96560D02*
G75*
D01*
G02X243956Y96560I444J0*
G01*
X246496Y96560D02*
G75*
D01*
G02X246496Y96560I444J0*
G01*
X241416Y96560D02*
G75*
D01*
G02X241416Y96560I444J0*
G01*
X236336Y96560D02*
G75*
D01*
G02X236336Y96560I444J0*
G01*
X238876Y96560D02*
G75*
D01*
G02X238876Y96560I444J0*
G01*
X233796Y96560D02*
G75*
D01*
G02X233796Y96560I444J0*
G01*
X231256Y104180D02*
G75*
D01*
G02X231256Y104180I444J0*
G01*
X246496Y104180D02*
G75*
D01*
G02X246496Y104180I444J0*
G01*
X243956Y104180D02*
G75*
D01*
G02X243956Y104180I444J0*
G01*
X241416Y104180D02*
G75*
D01*
G02X241416Y104180I444J0*
G01*
X236336Y104180D02*
G75*
D01*
G02X236336Y104180I444J0*
G01*
X238876Y104180D02*
G75*
D01*
G02X238876Y104180I444J0*
G01*
X233796Y104180D02*
G75*
D01*
G02X233796Y104180I444J0*
G01*
X231256Y96560D02*
G75*
D01*
G02X231256Y96560I444J0*
G01*
X258588Y114126D02*
G75*
D01*
G02X258588Y114126I445J0*
G01*
X256048Y121746D02*
G75*
D01*
G02X256048Y121746I445J0*
G01*
X250968Y121746D02*
G75*
D01*
G02X250968Y121746I445J0*
G01*
X253508Y121746D02*
G75*
D01*
G02X253508Y121746I445J0*
G01*
X250968Y114126D02*
G75*
D01*
G02X250968Y114126I445J0*
G01*
X256048Y114126D02*
G75*
D01*
G02X256048Y114126I445J0*
G01*
X253508Y114126D02*
G75*
D01*
G02X253508Y114126I445J0*
G01*
X258588Y121746D02*
G75*
D01*
G02X258588Y121746I445J0*
G01*
X220450Y125050D02*
X221350Y125050D01*
X221350Y125950D01*
X220450Y125950D01*
X220450Y125050D01*
X207450Y125050D02*
X208350Y125050D01*
X208350Y125950D01*
X207450Y125950D01*
X207450Y125050D01*
X260736Y17600D02*
G75*
D01*
G02X260736Y17600I444J0*
G01*
X258196Y17600D02*
G75*
D01*
G02X258196Y17600I444J0*
G01*
X255603Y17103D02*
X256597Y17103D01*
X256100Y17952D01*
X255603Y17103D01*
X263276Y17600D02*
G75*
D01*
G02X263276Y17600I444J0*
G01*
X273250Y17250D02*
X274150Y17250D01*
X274150Y18150D01*
X273250Y18150D01*
X273250Y17250D01*
X273250Y30250D02*
X274150Y30250D01*
X274150Y31150D01*
X273250Y31150D01*
X273250Y30250D01*
X260750Y37050D02*
X261650Y37050D01*
X261650Y37950D01*
X260750Y37950D01*
X260750Y37050D01*
X260750Y24050D02*
X261650Y24050D01*
X261650Y24950D01*
X260750Y24950D01*
X260750Y24050D01*
X265650Y37050D02*
X266550Y37050D01*
X266550Y37950D01*
X265650Y37950D01*
X265650Y37050D01*
X265650Y24050D02*
X266550Y24050D01*
X266550Y24950D01*
X265650Y24950D01*
X265650Y24050D01*
X255750Y37050D02*
X256650Y37050D01*
X256650Y37950D01*
X255750Y37950D01*
X255750Y37050D01*
X255750Y24050D02*
X256650Y24050D01*
X256650Y24950D01*
X255750Y24950D01*
X255750Y24050D01*
X260756Y44700D02*
G75*
D01*
G02X260756Y44700I444J0*
G01*
X258216Y44700D02*
G75*
D01*
G02X258216Y44700I444J0*
G01*
X273250Y39350D02*
X274150Y39350D01*
X274150Y40250D01*
X273250Y40250D01*
X273250Y39350D01*
X273250Y52350D02*
X274150Y52350D01*
X274150Y53250D01*
X273250Y53250D01*
X273250Y52350D01*
X254850Y53050D02*
X255750Y53050D01*
X255750Y53950D01*
X254850Y53950D01*
X254850Y53050D01*
X254850Y66050D02*
X255750Y66050D01*
X255750Y66950D01*
X254850Y66950D01*
X254850Y66050D01*
X250250Y50050D02*
X251150Y50050D01*
X251150Y50950D01*
X250250Y50950D01*
X250250Y50050D01*
X250250Y63050D02*
X251150Y63050D01*
X251150Y63950D01*
X250250Y63950D01*
X250250Y63050D01*
X245650Y50050D02*
X246550Y50050D01*
X246550Y50950D01*
X245650Y50950D01*
X245650Y50050D01*
X245650Y63050D02*
X246550Y63050D01*
X246550Y63950D01*
X245650Y63950D01*
X245650Y63050D01*
X238250Y53150D02*
X239150Y53150D01*
X239150Y54050D01*
X238250Y54050D01*
X238250Y53150D01*
X238250Y66150D02*
X239150Y66150D01*
X239150Y67050D01*
X238250Y67050D01*
X238250Y66150D01*
X243336Y70000D02*
G75*
D01*
G02X243336Y70000I444J0*
G01*
X240796Y77620D02*
G75*
D01*
G02X240796Y77620I444J0*
G01*
X240796Y70000D02*
G75*
D01*
G02X240796Y70000I444J0*
G01*
X243336Y77620D02*
G75*
D01*
G02X243336Y77620I444J0*
G01*
X238256Y77620D02*
G75*
D01*
G02X238256Y77620I444J0*
G01*
X238256Y70000D02*
G75*
D01*
G02X238256Y70000I444J0*
G01*
X259936Y70000D02*
G75*
D01*
G02X259936Y70000I444J0*
G01*
X254856Y77620D02*
G75*
D01*
G02X254856Y77620I444J0*
G01*
X257396Y70000D02*
G75*
D01*
G02X257396Y70000I444J0*
G01*
X257396Y77620D02*
G75*
D01*
G02X257396Y77620I444J0*
G01*
X259936Y77620D02*
G75*
D01*
G02X259936Y77620I444J0*
G01*
X254856Y70000D02*
G75*
D01*
G02X254856Y70000I444J0*
G01*
X183936Y19000D02*
G75*
D01*
G02X183936Y19000I444J0*
G01*
X186476Y19000D02*
G75*
D01*
G02X186476Y19000I444J0*
G01*
X178803Y18503D02*
X179797Y18503D01*
X179300Y19352D01*
X178803Y18503D01*
X181396Y19000D02*
G75*
D01*
G02X181396Y19000I444J0*
G01*
X145396Y18700D02*
G75*
D01*
G02X145396Y18700I444J0*
G01*
X142803Y18203D02*
X143797Y18203D01*
X143300Y19052D01*
X142803Y18203D01*
X147936Y18700D02*
G75*
D01*
G02X147936Y18700I444J0*
G01*
X153016Y18700D02*
G75*
D01*
G02X153016Y18700I444J0*
G01*
X150476Y18700D02*
G75*
D01*
G02X150476Y18700I444J0*
G01*
X155556Y18700D02*
G75*
D01*
G02X155556Y18700I444J0*
G01*
X128936Y18700D02*
G75*
D01*
G02X128936Y18700I444J0*
G01*
X111103Y18203D02*
X112097Y18203D01*
X111600Y19052D01*
X111103Y18203D01*
X116236Y18700D02*
G75*
D01*
G02X116236Y18700I444J0*
G01*
X113696Y18700D02*
G75*
D01*
G02X113696Y18700I444J0*
G01*
X118776Y18700D02*
G75*
D01*
G02X118776Y18700I444J0*
G01*
X123856Y18700D02*
G75*
D01*
G02X123856Y18700I444J0*
G01*
X121316Y18700D02*
G75*
D01*
G02X121316Y18700I444J0*
G01*
X126396Y18700D02*
G75*
D01*
G02X126396Y18700I444J0*
G01*
X98536Y18800D02*
G75*
D01*
G02X98536Y18800I444J0*
G01*
X95996Y18800D02*
G75*
D01*
G02X95996Y18800I444J0*
G01*
X93403Y18303D02*
X94397Y18303D01*
X93900Y19152D01*
X93403Y18303D01*
X101076Y18800D02*
G75*
D01*
G02X101076Y18800I444J0*
G01*
X18256Y80960D02*
G75*
D01*
G02X18256Y80960I444J0*
G01*
X18203Y83003D02*
X19197Y83003D01*
X18700Y83852D01*
X18203Y83003D01*
X18256Y78420D02*
G75*
D01*
G02X18256Y78420I444J0*
G01*
X18256Y73340D02*
G75*
D01*
G02X18256Y73340I444J0*
G01*
X18256Y75880D02*
G75*
D01*
G02X18256Y75880I444J0*
G01*
X18256Y70800D02*
G75*
D01*
G02X18256Y70800I444J0*
G01*
X18156Y121780D02*
G75*
D01*
G02X18156Y121780I444J0*
G01*
X18156Y119240D02*
G75*
D01*
G02X18156Y119240I444J0*
G01*
X18103Y116203D02*
X19097Y116203D01*
X18600Y117052D01*
X18103Y116203D01*
X18156Y124320D02*
G75*
D01*
G02X18156Y124320I444J0*
G01*
X139050Y119750D02*
X139950Y119750D01*
X139950Y120650D01*
X139050Y120650D01*
X139050Y119750D01*
X152050Y119750D02*
X152950Y119750D01*
X152950Y120650D01*
X152050Y120650D01*
X152050Y119750D01*
X139050Y123350D02*
X139950Y123350D01*
X139950Y124250D01*
X139050Y124250D01*
X139050Y123350D01*
X152050Y123350D02*
X152950Y123350D01*
X152950Y124250D01*
X152050Y124250D01*
X152050Y123350D01*
X224001Y152130D02*
G75*
D01*
G02X224001Y152130I444J0*
G01*
X206168Y151633D02*
X207162Y151633D01*
X206665Y152482D01*
X206168Y151633D01*
X216381Y152130D02*
G75*
D01*
G02X216381Y152130I444J0*
G01*
X211301Y152130D02*
G75*
D01*
G02X211301Y152130I444J0*
G01*
X208761Y152130D02*
G75*
D01*
G02X208761Y152130I444J0*
G01*
X213841Y152130D02*
G75*
D01*
G02X213841Y152130I444J0*
G01*
X218921Y152130D02*
G75*
D01*
G02X218921Y152130I444J0*
G01*
X221461Y152130D02*
G75*
D01*
G02X221461Y152130I444J0*
G01*
X226541Y152130D02*
G75*
D01*
G02X226541Y152130I444J0*
G01*
X14030Y73030D02*
X14030Y73830D01*
X13630Y73430D02*
X14430Y73430D01*
X176420Y65270D02*
X177220Y65270D01*
X176820Y64870D02*
X176820Y65670D01*
X328550Y144480D02*
X329544Y144480D01*
X329047Y145329D01*
X328550Y144480D01*
X328597Y148627D02*
X329497Y148627D01*
X329497Y149527D01*
X328597Y149527D01*
X328597Y148627D01*
X328603Y153177D02*
G75*
D01*
G02X328603Y153177I444J0*
G01*
X328647Y157277D02*
X329447Y157277D01*
X329047Y156877D02*
X329047Y157677D01*
G54D12*
X72876Y62324D02*
X73724Y61476D01*
X72876Y61476D02*
X73724Y62324D01*
X72972Y74520D02*
X73820Y73672D01*
X72972Y73672D02*
X73820Y74520D01*
X66876Y75704D02*
X67724Y76552D01*
X66876Y76552D02*
X67724Y75704D01*
X60876Y61476D02*
X61724Y62324D01*
X60876Y62324D02*
X61724Y61476D01*
X60876Y73676D02*
X61724Y74524D01*
X60876Y74524D02*
X61724Y73676D01*
X66476Y51076D02*
X67324Y51924D01*
X66476Y51924D02*
X67324Y51076D01*
X54280Y52020D02*
X55128Y51172D01*
X54280Y51172D02*
X55128Y52020D01*
X52248Y45924D02*
X53096Y45076D01*
X52248Y45076D02*
X53096Y45924D01*
X66476Y39924D02*
X67324Y39076D01*
X66476Y39076D02*
X67324Y39924D01*
X54276Y39924D02*
X55124Y39076D01*
X54276Y39076D02*
X55124Y39924D01*
X86276Y134376D02*
X87124Y135224D01*
X86276Y135224D02*
X87124Y134376D01*
X98472Y134280D02*
X99320Y135128D01*
X98472Y135128D02*
X99320Y134280D01*
X100504Y140376D02*
X101352Y141224D01*
X100504Y141224D02*
X101352Y140376D01*
X86276Y147224D02*
X87124Y146376D01*
X86276Y146376D02*
X87124Y147224D01*
X98476Y147224D02*
X99324Y146376D01*
X98476Y146376D02*
X99324Y147224D01*
X120300Y113082D02*
X121018Y113800D01*
X120300Y114518D01*
X119582Y113800D01*
X120300Y113082D01*
X121570Y114352D02*
X122288Y115070D01*
X121570Y115788D01*
X120852Y115070D01*
X121570Y114352D01*
X120300Y115622D02*
X121018Y116340D01*
X120300Y117058D01*
X119582Y116340D01*
X120300Y115622D01*
X120300Y104382D02*
X121018Y105100D01*
X120300Y105818D01*
X119582Y105100D01*
X120300Y104382D01*
X121570Y105652D02*
X122288Y106370D01*
X121570Y107088D01*
X120852Y106370D01*
X121570Y105652D01*
X120300Y106922D02*
X121018Y107640D01*
X120300Y108358D01*
X119582Y107640D01*
X120300Y106922D01*
X120300Y95682D02*
X121018Y96400D01*
X120300Y97118D01*
X119582Y96400D01*
X120300Y95682D01*
X121570Y96952D02*
X122288Y97670D01*
X121570Y98388D01*
X120852Y97670D01*
X121570Y96952D01*
X120300Y98222D02*
X121018Y98940D01*
X120300Y99658D01*
X119582Y98940D01*
X120300Y98222D01*
X51400Y59082D02*
X52118Y59800D01*
X51400Y60518D01*
X50682Y59800D01*
X51400Y59082D01*
X50130Y57812D02*
X50848Y58530D01*
X50130Y59248D01*
X49412Y58530D01*
X50130Y57812D01*
X51400Y56542D02*
X52118Y57260D01*
X51400Y57978D01*
X50682Y57260D01*
X51400Y56542D01*
X245812Y44748D02*
X245812Y45066D01*
X245977Y45277D01*
X246141Y45277D01*
X246306Y45066D01*
X246306Y44748D01*
X245812Y44907D02*
X246306Y44907D01*
X245359Y44960D02*
G75*
D01*
G02X245359Y44960I741J0*
G01*
X245812Y34588D02*
X245812Y34906D01*
X245977Y35117D01*
X246141Y35117D01*
X246306Y34906D01*
X246306Y34588D01*
X245812Y34747D02*
X246306Y34747D01*
X245359Y34800D02*
G75*
D01*
G02X245359Y34800I741J0*
G01*
X125530Y37412D02*
X126248Y38130D01*
X125530Y38848D01*
X124812Y38130D01*
X125530Y37412D01*
X126800Y36142D02*
X127518Y36860D01*
X126800Y37578D01*
X126082Y36860D01*
X126800Y36142D01*
X126800Y38682D02*
X127518Y39400D01*
X126800Y40118D01*
X126082Y39400D01*
X126800Y38682D01*
X165993Y42648D02*
X165993Y42876D01*
X166111Y43029D01*
X166230Y43029D01*
X166348Y42876D01*
X166348Y42648D01*
X165993Y42762D02*
X166348Y42762D01*
X165667Y42267D02*
X166733Y42267D01*
X166733Y43333D01*
X165667Y43333D01*
X165667Y42267D01*
X165993Y37568D02*
X165993Y37796D01*
X166111Y37949D01*
X166230Y37949D01*
X166348Y37796D01*
X166348Y37568D01*
X165993Y37682D02*
X166348Y37682D01*
X165667Y37187D02*
X166733Y37187D01*
X166733Y38253D01*
X165667Y38253D01*
X165667Y37187D01*
X165993Y40108D02*
X165993Y40336D01*
X166111Y40489D01*
X166230Y40489D01*
X166348Y40336D01*
X166348Y40108D01*
X165993Y40222D02*
X166348Y40222D01*
X165667Y39727D02*
X166733Y39727D01*
X166733Y40793D01*
X165667Y40793D01*
X165667Y39727D01*
X215470Y89651D02*
X215470Y89904D01*
X215602Y90073D01*
X215733Y90073D01*
X215864Y89904D01*
X215864Y89651D01*
X215470Y89778D02*
X215864Y89778D01*
X215700Y88985D02*
X216535Y89820D01*
X215700Y90655D01*
X214865Y89820D01*
X215700Y88985D01*
X215470Y92041D02*
X215470Y92294D01*
X215602Y92463D01*
X215733Y92463D01*
X215864Y92294D01*
X215864Y92041D01*
X215470Y92168D02*
X215864Y92168D01*
X215700Y91375D02*
X216535Y92210D01*
X215700Y93045D01*
X214865Y92210D01*
X215700Y91375D01*
X215470Y94431D02*
X215470Y94684D01*
X215602Y94853D01*
X215733Y94853D01*
X215864Y94684D01*
X215864Y94431D01*
X215470Y94558D02*
X215864Y94558D01*
X215700Y93765D02*
X216535Y94600D01*
X215700Y95435D01*
X214865Y94600D01*
X215700Y93765D01*
X285367Y63629D02*
X285367Y63908D01*
X285512Y64094D01*
X285656Y64094D01*
X285801Y63908D01*
X285801Y63629D01*
X285367Y63769D02*
X285801Y63769D01*
X284970Y63490D02*
X286270Y63490D01*
X285620Y64600D01*
X284970Y63490D01*
X270127Y83949D02*
X270127Y84228D01*
X270272Y84414D01*
X270416Y84414D01*
X270561Y84228D01*
X270561Y83949D01*
X270127Y84089D02*
X270561Y84089D01*
X269730Y83810D02*
X271030Y83810D01*
X270380Y84920D01*
X269730Y83810D01*
X277747Y83949D02*
X277747Y84228D01*
X277892Y84414D01*
X278036Y84414D01*
X278181Y84228D01*
X278181Y83949D01*
X277747Y84089D02*
X278181Y84089D01*
X277350Y83810D02*
X278650Y83810D01*
X278000Y84920D01*
X277350Y83810D01*
X270127Y63629D02*
X270127Y63908D01*
X270272Y64094D01*
X270416Y64094D01*
X270561Y63908D01*
X270561Y63629D01*
X270127Y63769D02*
X270561Y63769D01*
X269730Y63490D02*
X271030Y63490D01*
X270380Y64600D01*
X269730Y63490D01*
X285367Y83949D02*
X285367Y84228D01*
X285512Y84414D01*
X285656Y84414D01*
X285801Y84228D01*
X285801Y83949D01*
X285367Y84089D02*
X285801Y84089D01*
X284970Y83810D02*
X286270Y83810D01*
X285620Y84920D01*
X284970Y83810D01*
X40017Y51828D02*
X40017Y52146D01*
X40182Y52357D01*
X40346Y52357D01*
X40511Y52146D01*
X40511Y51828D01*
X40017Y51987D02*
X40511Y51987D01*
X39564Y52040D02*
G75*
D01*
G02X39564Y52040I741J0*
G01*
X40017Y41668D02*
X40017Y41986D01*
X40182Y42197D01*
X40346Y42197D01*
X40511Y41986D01*
X40511Y41668D01*
X40017Y41827D02*
X40511Y41827D01*
X39564Y41880D02*
G75*
D01*
G02X39564Y41880I741J0*
G01*
X25197Y52163D02*
X25197Y52481D01*
X25362Y52692D01*
X25526Y52692D01*
X25691Y52481D01*
X25691Y52163D01*
X25197Y52322D02*
X25691Y52322D01*
X24744Y52375D02*
G75*
D01*
G02X24744Y52375I741J0*
G01*
X25197Y42003D02*
X25197Y42321D01*
X25362Y42532D01*
X25526Y42532D01*
X25691Y42321D01*
X25691Y42003D01*
X25197Y42162D02*
X25691Y42162D01*
X24744Y42215D02*
G75*
D01*
G02X24744Y42215I741J0*
G01*
X178693Y26448D02*
X178693Y26676D01*
X178811Y26829D01*
X178930Y26829D01*
X179048Y26676D01*
X179048Y26448D01*
X178693Y26562D02*
X179048Y26562D01*
X178367Y26067D02*
X179433Y26067D01*
X179433Y27133D01*
X178367Y27133D01*
X178367Y26067D01*
X173613Y26448D02*
X173613Y26676D01*
X173731Y26829D01*
X173850Y26829D01*
X173968Y26676D01*
X173968Y26448D01*
X173613Y26562D02*
X173968Y26562D01*
X173287Y26067D02*
X174353Y26067D01*
X174353Y27133D01*
X173287Y27133D01*
X173287Y26067D01*
X176153Y26448D02*
X176153Y26676D01*
X176271Y26829D01*
X176390Y26829D01*
X176508Y26676D01*
X176508Y26448D01*
X176153Y26562D02*
X176508Y26562D01*
X175827Y26067D02*
X176893Y26067D01*
X176893Y27133D01*
X175827Y27133D01*
X175827Y26067D01*
X98025Y123962D02*
X98743Y124680D01*
X98025Y125398D01*
X97307Y124680D01*
X98025Y123962D01*
X99295Y125232D02*
X100013Y125950D01*
X99295Y126668D01*
X98577Y125950D01*
X99295Y125232D01*
X98025Y126502D02*
X98743Y127220D01*
X98025Y127938D01*
X97307Y127220D01*
X98025Y126502D01*
X32612Y110048D02*
X32612Y110366D01*
X32777Y110577D01*
X32941Y110577D01*
X33106Y110366D01*
X33106Y110048D01*
X32612Y110207D02*
X33106Y110207D01*
X32159Y110260D02*
G75*
D01*
G02X32159Y110260I741J0*
G01*
X32612Y99888D02*
X32612Y100206D01*
X32777Y100417D01*
X32941Y100417D01*
X33106Y100206D01*
X33106Y99888D01*
X32612Y100047D02*
X33106Y100047D01*
X32159Y100100D02*
G75*
D01*
G02X32159Y100100I741J0*
G01*
X178031Y132617D02*
X178253Y132617D01*
X178364Y132689D01*
X178364Y132724D01*
X178253Y132796D01*
X178364Y132867D01*
X178364Y132903D01*
X178253Y132974D01*
X178086Y132974D01*
X178031Y132974D01*
X178086Y132796D02*
X178253Y132796D01*
X178086Y132974D02*
X178086Y132617D01*
X177725Y132760D02*
G75*
D01*
G02X177725Y132760I500J0*
G01*
X178031Y130077D02*
X178253Y130077D01*
X178364Y130149D01*
X178364Y130184D01*
X178253Y130256D01*
X178364Y130327D01*
X178364Y130363D01*
X178253Y130434D01*
X178086Y130434D01*
X178031Y130434D01*
X178086Y130256D02*
X178253Y130256D01*
X178086Y130434D02*
X178086Y130077D01*
X177725Y130220D02*
G75*
D01*
G02X177725Y130220I500J0*
G01*
X178031Y127537D02*
X178253Y127537D01*
X178364Y127609D01*
X178364Y127644D01*
X178253Y127716D01*
X178364Y127787D01*
X178364Y127823D01*
X178253Y127894D01*
X178086Y127894D01*
X178031Y127894D01*
X178086Y127716D02*
X178253Y127716D01*
X178086Y127894D02*
X178086Y127537D01*
X177725Y127680D02*
G75*
D01*
G02X177725Y127680I500J0*
G01*
X178031Y124997D02*
X178253Y124997D01*
X178364Y125069D01*
X178364Y125104D01*
X178253Y125176D01*
X178364Y125247D01*
X178364Y125283D01*
X178253Y125354D01*
X178086Y125354D01*
X178031Y125354D01*
X178086Y125176D02*
X178253Y125176D01*
X178086Y125354D02*
X178086Y124997D01*
X177725Y125140D02*
G75*
D01*
G02X177725Y125140I500J0*
G01*
X178031Y122457D02*
X178253Y122457D01*
X178364Y122529D01*
X178364Y122564D01*
X178253Y122636D01*
X178364Y122707D01*
X178364Y122743D01*
X178253Y122814D01*
X178086Y122814D01*
X178031Y122814D01*
X178086Y122636D02*
X178253Y122636D01*
X178086Y122814D02*
X178086Y122457D01*
X177725Y122600D02*
G75*
D01*
G02X177725Y122600I500J0*
G01*
X178031Y119917D02*
X178253Y119917D01*
X178364Y119989D01*
X178364Y120024D01*
X178253Y120096D01*
X178364Y120167D01*
X178364Y120203D01*
X178253Y120274D01*
X178086Y120274D01*
X178031Y120274D01*
X178086Y120096D02*
X178253Y120096D01*
X178086Y120274D02*
X178086Y119917D01*
X177725Y120060D02*
G75*
D01*
G02X177725Y120060I500J0*
G01*
X178031Y117377D02*
X178253Y117377D01*
X178364Y117449D01*
X178364Y117484D01*
X178253Y117556D01*
X178364Y117627D01*
X178364Y117663D01*
X178253Y117734D01*
X178086Y117734D01*
X178031Y117734D01*
X178086Y117556D02*
X178253Y117556D01*
X178086Y117734D02*
X178086Y117377D01*
X177725Y117520D02*
G75*
D01*
G02X177725Y117520I500J0*
G01*
X178031Y114837D02*
X178253Y114837D01*
X178364Y114909D01*
X178364Y114944D01*
X178253Y115016D01*
X178364Y115087D01*
X178364Y115123D01*
X178253Y115194D01*
X178086Y115194D01*
X178031Y115194D01*
X178086Y115016D02*
X178253Y115016D01*
X178086Y115194D02*
X178086Y114837D01*
X177725Y114980D02*
G75*
D01*
G02X177725Y114980I500J0*
G01*
X178031Y112297D02*
X178253Y112297D01*
X178364Y112369D01*
X178364Y112404D01*
X178253Y112476D01*
X178364Y112547D01*
X178364Y112583D01*
X178253Y112654D01*
X178086Y112654D01*
X178031Y112654D01*
X178086Y112476D02*
X178253Y112476D01*
X178086Y112654D02*
X178086Y112297D01*
X177725Y112440D02*
G75*
D01*
G02X177725Y112440I500J0*
G01*
X178031Y109757D02*
X178253Y109757D01*
X178364Y109829D01*
X178364Y109864D01*
X178253Y109936D01*
X178364Y110007D01*
X178364Y110043D01*
X178253Y110114D01*
X178086Y110114D01*
X178031Y110114D01*
X178086Y109936D02*
X178253Y109936D01*
X178086Y110114D02*
X178086Y109757D01*
X177725Y109900D02*
G75*
D01*
G02X177725Y109900I500J0*
G01*
X178031Y107217D02*
X178253Y107217D01*
X178364Y107289D01*
X178364Y107324D01*
X178253Y107396D01*
X178364Y107467D01*
X178364Y107503D01*
X178253Y107574D01*
X178086Y107574D01*
X178031Y107574D01*
X178086Y107396D02*
X178253Y107396D01*
X178086Y107574D02*
X178086Y107217D01*
X177725Y107360D02*
G75*
D01*
G02X177725Y107360I500J0*
G01*
X178031Y104677D02*
X178253Y104677D01*
X178364Y104749D01*
X178364Y104784D01*
X178253Y104856D01*
X178364Y104927D01*
X178364Y104963D01*
X178253Y105034D01*
X178086Y105034D01*
X178031Y105034D01*
X178086Y104856D02*
X178253Y104856D01*
X178086Y105034D02*
X178086Y104677D01*
X177725Y104820D02*
G75*
D01*
G02X177725Y104820I500J0*
G01*
X178031Y102137D02*
X178253Y102137D01*
X178364Y102209D01*
X178364Y102244D01*
X178253Y102316D01*
X178364Y102387D01*
X178364Y102423D01*
X178253Y102494D01*
X178086Y102494D01*
X178031Y102494D01*
X178086Y102316D02*
X178253Y102316D01*
X178086Y102494D02*
X178086Y102137D01*
X177725Y102280D02*
G75*
D01*
G02X177725Y102280I500J0*
G01*
X178031Y99597D02*
X178253Y99597D01*
X178364Y99669D01*
X178364Y99704D01*
X178253Y99776D01*
X178364Y99847D01*
X178364Y99883D01*
X178253Y99954D01*
X178086Y99954D01*
X178031Y99954D01*
X178086Y99776D02*
X178253Y99776D01*
X178086Y99954D02*
X178086Y99597D01*
X177725Y99740D02*
G75*
D01*
G02X177725Y99740I500J0*
G01*
X178031Y97057D02*
X178253Y97057D01*
X178364Y97129D01*
X178364Y97164D01*
X178253Y97236D01*
X178364Y97307D01*
X178364Y97343D01*
X178253Y97414D01*
X178086Y97414D01*
X178031Y97414D01*
X178086Y97236D02*
X178253Y97236D01*
X178086Y97414D02*
X178086Y97057D01*
X177725Y97200D02*
G75*
D01*
G02X177725Y97200I500J0*
G01*
X193271Y132617D02*
X193493Y132617D01*
X193604Y132689D01*
X193604Y132724D01*
X193493Y132796D01*
X193604Y132867D01*
X193604Y132903D01*
X193493Y132974D01*
X193326Y132974D01*
X193271Y132974D01*
X193326Y132796D02*
X193493Y132796D01*
X193326Y132974D02*
X193326Y132617D01*
X192965Y132760D02*
G75*
D01*
G02X192965Y132760I500J0*
G01*
X193271Y130077D02*
X193493Y130077D01*
X193604Y130149D01*
X193604Y130184D01*
X193493Y130256D01*
X193604Y130327D01*
X193604Y130363D01*
X193493Y130434D01*
X193326Y130434D01*
X193271Y130434D01*
X193326Y130256D02*
X193493Y130256D01*
X193326Y130434D02*
X193326Y130077D01*
X192965Y130220D02*
G75*
D01*
G02X192965Y130220I500J0*
G01*
X193271Y127537D02*
X193493Y127537D01*
X193604Y127609D01*
X193604Y127644D01*
X193493Y127716D01*
X193604Y127787D01*
X193604Y127823D01*
X193493Y127894D01*
X193326Y127894D01*
X193271Y127894D01*
X193326Y127716D02*
X193493Y127716D01*
X193326Y127894D02*
X193326Y127537D01*
X192965Y127680D02*
G75*
D01*
G02X192965Y127680I500J0*
G01*
X193271Y124997D02*
X193493Y124997D01*
X193604Y125069D01*
X193604Y125104D01*
X193493Y125176D01*
X193604Y125247D01*
X193604Y125283D01*
X193493Y125354D01*
X193326Y125354D01*
X193271Y125354D01*
X193326Y125176D02*
X193493Y125176D01*
X193326Y125354D02*
X193326Y124997D01*
X192965Y125140D02*
G75*
D01*
G02X192965Y125140I500J0*
G01*
X193271Y122457D02*
X193493Y122457D01*
X193604Y122529D01*
X193604Y122564D01*
X193493Y122636D01*
X193604Y122707D01*
X193604Y122743D01*
X193493Y122814D01*
X193326Y122814D01*
X193271Y122814D01*
X193326Y122636D02*
X193493Y122636D01*
X193326Y122814D02*
X193326Y122457D01*
X192965Y122600D02*
G75*
D01*
G02X192965Y122600I500J0*
G01*
X193271Y119917D02*
X193493Y119917D01*
X193604Y119989D01*
X193604Y120024D01*
X193493Y120096D01*
X193604Y120167D01*
X193604Y120203D01*
X193493Y120274D01*
X193326Y120274D01*
X193271Y120274D01*
X193326Y120096D02*
X193493Y120096D01*
X193326Y120274D02*
X193326Y119917D01*
X192965Y120060D02*
G75*
D01*
G02X192965Y120060I500J0*
G01*
X193271Y117377D02*
X193493Y117377D01*
X193604Y117449D01*
X193604Y117484D01*
X193493Y117556D01*
X193604Y117627D01*
X193604Y117663D01*
X193493Y117734D01*
X193326Y117734D01*
X193271Y117734D01*
X193326Y117556D02*
X193493Y117556D01*
X193326Y117734D02*
X193326Y117377D01*
X192965Y117520D02*
G75*
D01*
G02X192965Y117520I500J0*
G01*
X193271Y114837D02*
X193493Y114837D01*
X193604Y114909D01*
X193604Y114944D01*
X193493Y115016D01*
X193604Y115087D01*
X193604Y115123D01*
X193493Y115194D01*
X193326Y115194D01*
X193271Y115194D01*
X193326Y115016D02*
X193493Y115016D01*
X193326Y115194D02*
X193326Y114837D01*
X192965Y114980D02*
G75*
D01*
G02X192965Y114980I500J0*
G01*
X193271Y112297D02*
X193493Y112297D01*
X193604Y112369D01*
X193604Y112404D01*
X193493Y112476D01*
X193604Y112547D01*
X193604Y112583D01*
X193493Y112654D01*
X193326Y112654D01*
X193271Y112654D01*
X193326Y112476D02*
X193493Y112476D01*
X193326Y112654D02*
X193326Y112297D01*
X192965Y112440D02*
G75*
D01*
G02X192965Y112440I500J0*
G01*
X193271Y109757D02*
X193493Y109757D01*
X193604Y109829D01*
X193604Y109864D01*
X193493Y109936D01*
X193604Y110007D01*
X193604Y110043D01*
X193493Y110114D01*
X193326Y110114D01*
X193271Y110114D01*
X193326Y109936D02*
X193493Y109936D01*
X193326Y110114D02*
X193326Y109757D01*
X192965Y109900D02*
G75*
D01*
G02X192965Y109900I500J0*
G01*
X193271Y107217D02*
X193493Y107217D01*
X193604Y107289D01*
X193604Y107324D01*
X193493Y107396D01*
X193604Y107467D01*
X193604Y107503D01*
X193493Y107574D01*
X193326Y107574D01*
X193271Y107574D01*
X193326Y107396D02*
X193493Y107396D01*
X193326Y107574D02*
X193326Y107217D01*
X192965Y107360D02*
G75*
D01*
G02X192965Y107360I500J0*
G01*
X193271Y104677D02*
X193493Y104677D01*
X193604Y104749D01*
X193604Y104784D01*
X193493Y104856D01*
X193604Y104927D01*
X193604Y104963D01*
X193493Y105034D01*
X193326Y105034D01*
X193271Y105034D01*
X193326Y104856D02*
X193493Y104856D01*
X193326Y105034D02*
X193326Y104677D01*
X192965Y104820D02*
G75*
D01*
G02X192965Y104820I500J0*
G01*
X193271Y102137D02*
X193493Y102137D01*
X193604Y102209D01*
X193604Y102244D01*
X193493Y102316D01*
X193604Y102387D01*
X193604Y102423D01*
X193493Y102494D01*
X193326Y102494D01*
X193271Y102494D01*
X193326Y102316D02*
X193493Y102316D01*
X193326Y102494D02*
X193326Y102137D01*
X192965Y102280D02*
G75*
D01*
G02X192965Y102280I500J0*
G01*
X193271Y99597D02*
X193493Y99597D01*
X193604Y99669D01*
X193604Y99704D01*
X193493Y99776D01*
X193604Y99847D01*
X193604Y99883D01*
X193493Y99954D01*
X193326Y99954D01*
X193271Y99954D01*
X193326Y99776D02*
X193493Y99776D01*
X193326Y99954D02*
X193326Y99597D01*
X192965Y99740D02*
G75*
D01*
G02X192965Y99740I500J0*
G01*
X193271Y97057D02*
X193493Y97057D01*
X193604Y97129D01*
X193604Y97164D01*
X193493Y97236D01*
X193604Y97307D01*
X193604Y97343D01*
X193493Y97414D01*
X193326Y97414D01*
X193271Y97414D01*
X193326Y97236D02*
X193493Y97236D01*
X193326Y97414D02*
X193326Y97057D01*
X192965Y97200D02*
G75*
D01*
G02X192965Y97200I500J0*
G01*
X241633Y91773D02*
X241633Y92001D01*
X241751Y92154D01*
X241870Y92154D01*
X241988Y92001D01*
X241988Y91773D01*
X241633Y91887D02*
X241988Y91887D01*
X241307Y91392D02*
X242373Y91392D01*
X242373Y92458D01*
X241307Y92458D01*
X241307Y91392D01*
X236553Y91773D02*
X236553Y92001D01*
X236671Y92154D01*
X236790Y92154D01*
X236908Y92001D01*
X236908Y91773D01*
X236553Y91887D02*
X236908Y91887D01*
X236227Y91392D02*
X237293Y91392D01*
X237293Y92458D01*
X236227Y92458D01*
X236227Y91392D01*
X239093Y91773D02*
X239093Y92001D01*
X239211Y92154D01*
X239330Y92154D01*
X239448Y92001D01*
X239448Y91773D01*
X239093Y91887D02*
X239448Y91887D01*
X238767Y91392D02*
X239833Y91392D01*
X239833Y92458D01*
X238767Y92458D01*
X238767Y91392D01*
X29589Y25971D02*
X29944Y25971D01*
X30122Y26086D01*
X30122Y26143D01*
X29944Y26257D01*
X30122Y26371D01*
X30122Y26429D01*
X29944Y26543D01*
X29678Y26543D01*
X29589Y26543D01*
X29678Y26257D02*
X29944Y26257D01*
X29678Y26543D02*
X29678Y25971D01*
X29100Y25400D02*
X30700Y25400D01*
X30700Y27000D01*
X29100Y27000D01*
X29100Y25400D01*
X34589Y25971D02*
X34944Y25971D01*
X35122Y26086D01*
X35122Y26143D01*
X34944Y26257D01*
X35122Y26371D01*
X35122Y26429D01*
X34944Y26543D01*
X34678Y26543D01*
X34589Y26543D01*
X34678Y26257D02*
X34944Y26257D01*
X34678Y26543D02*
X34678Y25971D01*
X34100Y25400D02*
X35700Y25400D01*
X35700Y27000D01*
X34100Y27000D01*
X34100Y25400D01*
X39589Y25971D02*
X39944Y25971D01*
X40122Y26086D01*
X40122Y26143D01*
X39944Y26257D01*
X40122Y26371D01*
X40122Y26429D01*
X39944Y26543D01*
X39678Y26543D01*
X39589Y26543D01*
X39678Y26257D02*
X39944Y26257D01*
X39678Y26543D02*
X39678Y25971D01*
X39100Y25400D02*
X40700Y25400D01*
X40700Y27000D01*
X39100Y27000D01*
X39100Y25400D01*
X44589Y25971D02*
X44944Y25971D01*
X45122Y26086D01*
X45122Y26143D01*
X44944Y26257D01*
X45122Y26371D01*
X45122Y26429D01*
X44944Y26543D01*
X44678Y26543D01*
X44589Y26543D01*
X44678Y26257D02*
X44944Y26257D01*
X44678Y26543D02*
X44678Y25971D01*
X44100Y25400D02*
X45700Y25400D01*
X45700Y27000D01*
X44100Y27000D01*
X44100Y25400D01*
X49589Y25971D02*
X49944Y25971D01*
X50122Y26086D01*
X50122Y26143D01*
X49944Y26257D01*
X50122Y26371D01*
X50122Y26429D01*
X49944Y26543D01*
X49678Y26543D01*
X49589Y26543D01*
X49678Y26257D02*
X49944Y26257D01*
X49678Y26543D02*
X49678Y25971D01*
X49100Y25400D02*
X50700Y25400D01*
X50700Y27000D01*
X49100Y27000D01*
X49100Y25400D01*
X328736Y111948D02*
X329091Y111948D01*
X329269Y112063D01*
X329269Y112120D01*
X329091Y112234D01*
X329269Y112348D01*
X329269Y112406D01*
X329091Y112520D01*
X328825Y112520D01*
X328736Y112520D01*
X328825Y112234D02*
X329091Y112234D01*
X328825Y112520D02*
X328825Y111948D01*
X328247Y111377D02*
X329847Y111377D01*
X329847Y112977D01*
X328247Y112977D01*
X328247Y111377D01*
X339814Y113034D02*
X340480Y113463D01*
X340480Y111320D01*
X339480Y111320D02*
X341480Y111320D01*
X343480Y111320D02*
X343480Y111534D01*
X347147Y113463D02*
X346147Y113463D01*
X345480Y113034D01*
X345480Y112177D01*
X345480Y111748D01*
X346147Y111320D01*
X346814Y111320D01*
X347480Y111748D01*
X347480Y112177D01*
X346814Y112606D01*
X346147Y112606D01*
X345480Y112177D01*
X348480Y113034D02*
X349147Y113463D01*
X349814Y113463D01*
X350480Y113034D01*
X350480Y111748D01*
X349814Y111320D01*
X349147Y111320D01*
X348480Y111748D01*
X348480Y113034D01*
X350480Y113034D02*
X348480Y111748D01*
X351480Y113034D02*
X352147Y113463D01*
X352814Y113463D01*
X353480Y113034D01*
X353480Y111748D01*
X352814Y111320D01*
X352147Y111320D01*
X351480Y111748D01*
X351480Y113034D01*
X353480Y113034D02*
X351480Y111748D01*
X368080Y113463D02*
X366080Y113463D01*
X366080Y112606D01*
X367414Y112606D01*
X368080Y112177D01*
X368080Y111748D01*
X367414Y111320D01*
X366080Y111320D01*
X385180Y111320D02*
X385180Y113463D01*
X386514Y113463D01*
X387180Y113034D01*
X387180Y112820D01*
X386514Y112391D01*
X385180Y112391D01*
X389180Y111320D02*
X389180Y113463D01*
X388180Y113463D02*
X390180Y113463D01*
X391180Y111320D02*
X391180Y113463D01*
X393180Y111320D02*
X393180Y113463D01*
X391180Y112391D02*
X393180Y112391D01*
X402780Y113034D02*
X403447Y113463D01*
X404114Y113463D01*
X404780Y113034D01*
X404780Y111748D01*
X404114Y111320D01*
X403447Y111320D01*
X402780Y111748D01*
X402780Y113034D01*
X404780Y113034D02*
X402780Y111748D01*
X410447Y111320D02*
X410114Y111320D01*
X409447Y111748D01*
X409447Y113034D01*
X410114Y113463D01*
X410447Y113463D01*
X411780Y111320D02*
X411780Y113463D01*
X413114Y113463D01*
X413780Y113034D01*
X413780Y112820D01*
X413114Y112391D01*
X411780Y112391D01*
X412114Y112391D02*
X413780Y111320D01*
X414780Y111748D02*
X415447Y111320D01*
X416114Y111320D01*
X416780Y111748D01*
X416780Y113034D01*
X416114Y113463D01*
X415447Y113463D01*
X414780Y113034D01*
X414780Y111748D01*
X417780Y113463D02*
X417780Y111748D01*
X418447Y111320D01*
X419114Y111320D01*
X419780Y111748D01*
X419780Y113463D01*
X420780Y111320D02*
X420780Y113463D01*
X422780Y111320D01*
X422780Y113463D01*
X423780Y111320D02*
X425114Y111320D01*
X425780Y111748D01*
X425780Y113034D01*
X425114Y113463D01*
X423780Y113463D01*
X424114Y113463D02*
X424114Y111320D01*
X427114Y113463D02*
X427447Y113463D01*
X428114Y113034D01*
X428114Y111748D01*
X427447Y111320D01*
X427114Y111320D01*
X328759Y116065D02*
X328759Y116383D01*
X328924Y116594D01*
X329088Y116594D01*
X329253Y116383D01*
X329253Y116065D01*
X328759Y116224D02*
X329253Y116224D01*
X328306Y116277D02*
G75*
D01*
G02X328306Y116277I741J0*
G01*
X339814Y117134D02*
X340480Y117563D01*
X340480Y115420D01*
X339480Y115420D02*
X341480Y115420D01*
X343480Y115420D02*
X343480Y115634D01*
X347480Y116277D02*
X345480Y116277D01*
X347147Y117563D01*
X347147Y115420D01*
X346814Y115420D02*
X347480Y115420D01*
X349814Y115420D02*
X349147Y115420D01*
X348480Y115848D01*
X348480Y116277D01*
X348814Y116491D01*
X348480Y116706D01*
X348480Y117134D01*
X349147Y117563D01*
X349814Y117563D01*
X350480Y117134D01*
X350480Y116706D01*
X350147Y116491D01*
X350480Y116277D01*
X350480Y115848D01*
X349814Y115420D01*
X348814Y116491D02*
X350147Y116491D01*
X351480Y117134D02*
X352147Y117563D01*
X352814Y117563D01*
X353480Y117134D01*
X353480Y116920D01*
X351480Y115420D01*
X353480Y115420D01*
X353480Y115634D01*
X367414Y115420D02*
X366747Y115420D01*
X366080Y115848D01*
X366080Y116277D01*
X366414Y116491D01*
X366080Y116706D01*
X366080Y117134D01*
X366747Y117563D01*
X367414Y117563D01*
X368080Y117134D01*
X368080Y116706D01*
X367747Y116491D01*
X368080Y116277D01*
X368080Y115848D01*
X367414Y115420D01*
X366414Y116491D02*
X367747Y116491D01*
X385180Y115420D02*
X385180Y117563D01*
X386514Y117563D01*
X387180Y117134D01*
X387180Y116920D01*
X386514Y116491D01*
X385180Y116491D01*
X389180Y115420D02*
X389180Y117563D01*
X388180Y117563D02*
X390180Y117563D01*
X391180Y115420D02*
X391180Y117563D01*
X393180Y115420D02*
X393180Y117563D01*
X391180Y116491D02*
X393180Y116491D01*
X402780Y117134D02*
X403447Y117563D01*
X404114Y117563D01*
X404780Y117134D01*
X404780Y115848D01*
X404114Y115420D01*
X403447Y115420D01*
X402780Y115848D01*
X402780Y117134D01*
X404780Y117134D02*
X402780Y115848D01*
X410447Y115420D02*
X410114Y115420D01*
X409447Y115848D01*
X409447Y117134D01*
X410114Y117563D01*
X410447Y117563D01*
X411780Y115420D02*
X411780Y117563D01*
X413114Y117563D01*
X413780Y117134D01*
X413780Y116920D01*
X413114Y116491D01*
X411780Y116491D01*
X412114Y116491D02*
X413780Y115420D01*
X414780Y115848D02*
X415447Y115420D01*
X416114Y115420D01*
X416780Y115848D01*
X416780Y117134D01*
X416114Y117563D01*
X415447Y117563D01*
X414780Y117134D01*
X414780Y115848D01*
X417780Y117563D02*
X417780Y115848D01*
X418447Y115420D01*
X419114Y115420D01*
X419780Y115848D01*
X419780Y117563D01*
X420780Y115420D02*
X420780Y117563D01*
X422780Y115420D01*
X422780Y117563D01*
X423780Y115420D02*
X425114Y115420D01*
X425780Y115848D01*
X425780Y117134D01*
X425114Y117563D01*
X423780Y117563D01*
X424114Y117563D02*
X424114Y115420D01*
X427114Y117563D02*
X427447Y117563D01*
X428114Y117134D01*
X428114Y115848D01*
X427447Y115420D01*
X427114Y115420D01*
X328794Y119866D02*
X328794Y120145D01*
X328939Y120331D01*
X329083Y120331D01*
X329228Y120145D01*
X329228Y119866D01*
X328794Y120006D02*
X329228Y120006D01*
X328397Y119727D02*
X329697Y119727D01*
X329047Y120837D01*
X328397Y119727D01*
X339814Y121234D02*
X340480Y121663D01*
X340480Y119520D01*
X339480Y119520D02*
X341480Y119520D01*
X343480Y119520D02*
X343480Y119734D01*
X345814Y121448D02*
X346147Y121663D01*
X346814Y121663D01*
X347480Y121234D01*
X347480Y120806D01*
X347147Y120591D01*
X347480Y120377D01*
X347480Y119948D01*
X346814Y119520D01*
X346147Y119520D01*
X345814Y119734D01*
X346147Y120591D02*
X347147Y120591D01*
X348480Y121234D02*
X349147Y121663D01*
X349814Y121663D01*
X350480Y121234D01*
X350480Y119948D01*
X349814Y119520D01*
X349147Y119520D01*
X348480Y119948D01*
X348480Y121234D01*
X350480Y121234D02*
X348480Y119948D01*
X351480Y121234D02*
X352147Y121663D01*
X352814Y121663D01*
X353480Y121234D01*
X353480Y119948D01*
X352814Y119520D01*
X352147Y119520D01*
X351480Y119948D01*
X351480Y121234D01*
X353480Y121234D02*
X351480Y119948D01*
X368080Y121663D02*
X366080Y121663D01*
X366080Y120806D01*
X367414Y120806D01*
X368080Y120377D01*
X368080Y119948D01*
X367414Y119520D01*
X366080Y119520D01*
X385180Y119520D02*
X385180Y121663D01*
X386514Y121663D01*
X387180Y121234D01*
X387180Y121020D01*
X386514Y120591D01*
X385180Y120591D01*
X389180Y119520D02*
X389180Y121663D01*
X388180Y121663D02*
X390180Y121663D01*
X391180Y119520D02*
X391180Y121663D01*
X393180Y119520D02*
X393180Y121663D01*
X391180Y120591D02*
X393180Y120591D01*
X402780Y121234D02*
X403447Y121663D01*
X404114Y121663D01*
X404780Y121234D01*
X404780Y119948D01*
X404114Y119520D01*
X403447Y119520D01*
X402780Y119948D01*
X402780Y121234D01*
X404780Y121234D02*
X402780Y119948D01*
X410447Y119520D02*
X410114Y119520D01*
X409447Y119948D01*
X409447Y121234D01*
X410114Y121663D01*
X410447Y121663D01*
X411780Y119520D02*
X411780Y121663D01*
X413114Y121663D01*
X413780Y121234D01*
X413780Y121020D01*
X413114Y120591D01*
X411780Y120591D01*
X412114Y120591D02*
X413780Y119520D01*
X414780Y119948D02*
X415447Y119520D01*
X416114Y119520D01*
X416780Y119948D01*
X416780Y121234D01*
X416114Y121663D01*
X415447Y121663D01*
X414780Y121234D01*
X414780Y119948D01*
X417780Y121663D02*
X417780Y119948D01*
X418447Y119520D01*
X419114Y119520D01*
X419780Y119948D01*
X419780Y121663D01*
X420780Y119520D02*
X420780Y121663D01*
X422780Y119520D01*
X422780Y121663D01*
X423780Y119520D02*
X425114Y119520D01*
X425780Y119948D01*
X425780Y121234D01*
X425114Y121663D01*
X423780Y121663D01*
X424114Y121663D02*
X424114Y119520D01*
X427114Y121663D02*
X427447Y121663D01*
X428114Y121234D01*
X428114Y119948D01*
X427447Y119520D01*
X427114Y119520D01*
X339814Y125334D02*
X340480Y125763D01*
X340480Y123620D01*
X339480Y123620D02*
X341480Y123620D01*
X343480Y123620D02*
X343480Y123834D01*
X345480Y125334D02*
X346147Y125763D01*
X346814Y125763D01*
X347480Y125334D01*
X347480Y125120D01*
X345480Y123620D01*
X347480Y123620D01*
X347480Y123834D01*
X348480Y125334D02*
X349147Y125763D01*
X349814Y125763D01*
X350480Y125334D01*
X350480Y124048D01*
X349814Y123620D01*
X349147Y123620D01*
X348480Y124048D01*
X348480Y125334D01*
X350480Y125334D02*
X348480Y124048D01*
X351480Y125334D02*
X352147Y125763D01*
X352814Y125763D01*
X353480Y125334D01*
X353480Y124048D01*
X352814Y123620D01*
X352147Y123620D01*
X351480Y124048D01*
X351480Y125334D01*
X353480Y125334D02*
X351480Y124048D01*
X364914Y125334D02*
X365580Y125763D01*
X365580Y123620D01*
X364580Y123620D02*
X366580Y123620D01*
X369580Y125763D02*
X367580Y125763D01*
X367580Y124906D01*
X368914Y124906D01*
X369580Y124477D01*
X369580Y124048D01*
X368914Y123620D01*
X367580Y123620D01*
X385180Y123620D02*
X385180Y125763D01*
X386514Y125763D01*
X387180Y125334D01*
X387180Y125120D01*
X386514Y124691D01*
X385180Y124691D01*
X389180Y123620D02*
X389180Y125763D01*
X388180Y125763D02*
X390180Y125763D01*
X391180Y123620D02*
X391180Y125763D01*
X393180Y123620D02*
X393180Y125763D01*
X391180Y124691D02*
X393180Y124691D01*
X402780Y125334D02*
X403447Y125763D01*
X404114Y125763D01*
X404780Y125334D01*
X404780Y124048D01*
X404114Y123620D01*
X403447Y123620D01*
X402780Y124048D01*
X402780Y125334D01*
X404780Y125334D02*
X402780Y124048D01*
X410447Y123620D02*
X410114Y123620D01*
X409447Y124048D01*
X409447Y125334D01*
X410114Y125763D01*
X410447Y125763D01*
X411780Y123620D02*
X411780Y125763D01*
X413114Y125763D01*
X413780Y125334D01*
X413780Y125120D01*
X413114Y124691D01*
X411780Y124691D01*
X412114Y124691D02*
X413780Y123620D01*
X414780Y124048D02*
X415447Y123620D01*
X416114Y123620D01*
X416780Y124048D01*
X416780Y125334D01*
X416114Y125763D01*
X415447Y125763D01*
X414780Y125334D01*
X414780Y124048D01*
X417780Y125763D02*
X417780Y124048D01*
X418447Y123620D01*
X419114Y123620D01*
X419780Y124048D01*
X419780Y125763D01*
X420780Y123620D02*
X420780Y125763D01*
X422780Y123620D01*
X422780Y125763D01*
X423780Y123620D02*
X425114Y123620D01*
X425780Y124048D01*
X425780Y125334D01*
X425114Y125763D01*
X423780Y125763D01*
X424114Y125763D02*
X424114Y123620D01*
X427114Y125763D02*
X427447Y125763D01*
X428114Y125334D01*
X428114Y124048D01*
X427447Y123620D01*
X427114Y123620D01*
X328623Y124901D02*
X329471Y124053D01*
X328623Y124053D02*
X329471Y124901D01*
X328817Y128408D02*
X328817Y128661D01*
X328949Y128830D01*
X329080Y128830D01*
X329211Y128661D01*
X329211Y128408D01*
X328817Y128535D02*
X329211Y128535D01*
X329047Y127742D02*
X329882Y128577D01*
X329047Y129412D01*
X328212Y128577D01*
X329047Y127742D01*
X339814Y129434D02*
X340480Y129863D01*
X340480Y127720D01*
X339480Y127720D02*
X341480Y127720D01*
X343480Y127720D02*
X343480Y127934D01*
X345814Y129434D02*
X346480Y129863D01*
X346480Y127720D01*
X345480Y127720D02*
X347480Y127720D01*
X349814Y127720D02*
X349147Y127720D01*
X348480Y128148D01*
X348480Y128577D01*
X348814Y128791D01*
X348480Y129006D01*
X348480Y129434D01*
X349147Y129863D01*
X349814Y129863D01*
X350480Y129434D01*
X350480Y129006D01*
X350147Y128791D01*
X350480Y128577D01*
X350480Y128148D01*
X349814Y127720D01*
X348814Y128791D02*
X350147Y128791D01*
X351814Y129434D02*
X352480Y129863D01*
X352480Y127720D01*
X351480Y127720D02*
X353480Y127720D01*
X366414Y129648D02*
X366747Y129863D01*
X367414Y129863D01*
X368080Y129434D01*
X368080Y129006D01*
X367747Y128791D01*
X368080Y128577D01*
X368080Y128148D01*
X367414Y127720D01*
X366747Y127720D01*
X366414Y127934D01*
X366747Y128791D02*
X367747Y128791D01*
X385180Y127720D02*
X385180Y129863D01*
X386514Y129863D01*
X387180Y129434D01*
X387180Y129220D01*
X386514Y128791D01*
X385180Y128791D01*
X389180Y127720D02*
X389180Y129863D01*
X388180Y129863D02*
X390180Y129863D01*
X391180Y127720D02*
X391180Y129863D01*
X393180Y127720D02*
X393180Y129863D01*
X391180Y128791D02*
X393180Y128791D01*
X402780Y129434D02*
X403447Y129863D01*
X404114Y129863D01*
X404780Y129434D01*
X404780Y128148D01*
X404114Y127720D01*
X403447Y127720D01*
X402780Y128148D01*
X402780Y129434D01*
X404780Y129434D02*
X402780Y128148D01*
X410447Y127720D02*
X410114Y127720D01*
X409447Y128148D01*
X409447Y129434D01*
X410114Y129863D01*
X410447Y129863D01*
X411780Y127720D02*
X411780Y129863D01*
X413114Y129863D01*
X413780Y129434D01*
X413780Y129220D01*
X413114Y128791D01*
X411780Y128791D01*
X412114Y128791D02*
X413780Y127720D01*
X414780Y128148D02*
X415447Y127720D01*
X416114Y127720D01*
X416780Y128148D01*
X416780Y129434D01*
X416114Y129863D01*
X415447Y129863D01*
X414780Y129434D01*
X414780Y128148D01*
X417780Y129863D02*
X417780Y128148D01*
X418447Y127720D01*
X419114Y127720D01*
X419780Y128148D01*
X419780Y129863D01*
X420780Y127720D02*
X420780Y129863D01*
X422780Y127720D01*
X422780Y129863D01*
X423780Y127720D02*
X425114Y127720D01*
X425780Y128148D01*
X425780Y129434D01*
X425114Y129863D01*
X423780Y129863D01*
X424114Y129863D02*
X424114Y127720D01*
X427114Y129863D02*
X427447Y129863D01*
X428114Y129434D01*
X428114Y128148D01*
X427447Y127720D01*
X427114Y127720D01*
X339814Y133534D02*
X340480Y133963D01*
X340480Y131820D01*
X339480Y131820D02*
X341480Y131820D01*
X343480Y131820D02*
X343480Y132034D01*
X345480Y133534D02*
X346147Y133963D01*
X346814Y133963D01*
X347480Y133534D01*
X347480Y132248D01*
X346814Y131820D01*
X346147Y131820D01*
X345480Y132248D01*
X345480Y133534D01*
X347480Y133534D02*
X345480Y132248D01*
X350147Y133963D02*
X349147Y133963D01*
X348480Y133534D01*
X348480Y132677D01*
X348480Y132248D01*
X349147Y131820D01*
X349814Y131820D01*
X350480Y132248D01*
X350480Y132677D01*
X349814Y133106D01*
X349147Y133106D01*
X348480Y132677D01*
X352480Y131820D02*
X352480Y132891D01*
X353480Y133534D01*
X353480Y133963D01*
X351480Y133963D01*
X351480Y133534D01*
X366080Y132248D02*
X366747Y131820D01*
X367414Y131820D01*
X368080Y132248D01*
X368080Y133106D01*
X368080Y133534D01*
X367414Y133963D01*
X366747Y133963D01*
X366080Y133534D01*
X366080Y133106D01*
X366747Y132677D01*
X367414Y132677D01*
X368080Y133106D01*
X385180Y131820D02*
X385180Y133963D01*
X386514Y133963D01*
X387180Y133534D01*
X387180Y133320D01*
X386514Y132891D01*
X385180Y132891D01*
X389180Y131820D02*
X389180Y133963D01*
X388180Y133963D02*
X390180Y133963D01*
X391180Y131820D02*
X391180Y133963D01*
X393180Y131820D02*
X393180Y133963D01*
X391180Y132891D02*
X393180Y132891D01*
X402780Y133534D02*
X403447Y133963D01*
X404114Y133963D01*
X404780Y133534D01*
X404780Y132248D01*
X404114Y131820D01*
X403447Y131820D01*
X402780Y132248D01*
X402780Y133534D01*
X404780Y133534D02*
X402780Y132248D01*
X410447Y131820D02*
X410114Y131820D01*
X409447Y132248D01*
X409447Y133534D01*
X410114Y133963D01*
X410447Y133963D01*
X411780Y131820D02*
X411780Y133963D01*
X413114Y133963D01*
X413780Y133534D01*
X413780Y133320D01*
X413114Y132891D01*
X411780Y132891D01*
X412114Y132891D02*
X413780Y131820D01*
X414780Y132248D02*
X415447Y131820D01*
X416114Y131820D01*
X416780Y132248D01*
X416780Y133534D01*
X416114Y133963D01*
X415447Y133963D01*
X414780Y133534D01*
X414780Y132248D01*
X417780Y133963D02*
X417780Y132248D01*
X418447Y131820D01*
X419114Y131820D01*
X419780Y132248D01*
X419780Y133963D01*
X420780Y131820D02*
X420780Y133963D01*
X422780Y131820D01*
X422780Y133963D01*
X423780Y131820D02*
X425114Y131820D01*
X425780Y132248D01*
X425780Y133534D01*
X425114Y133963D01*
X423780Y133963D01*
X424114Y133963D02*
X424114Y131820D01*
X427114Y133963D02*
X427447Y133963D01*
X428114Y133534D01*
X428114Y132248D01*
X427447Y131820D01*
X427114Y131820D01*
X328840Y132525D02*
X328840Y132753D01*
X328958Y132906D01*
X329077Y132906D01*
X329195Y132753D01*
X329195Y132525D01*
X328840Y132639D02*
X329195Y132639D01*
X328514Y132144D02*
X329580Y132144D01*
X329580Y133210D01*
X328514Y133210D01*
X328514Y132144D01*
X339814Y137634D02*
X340480Y138063D01*
X340480Y135920D01*
X339480Y135920D02*
X341480Y135920D01*
X343480Y135920D02*
X343480Y136134D01*
X345480Y137634D02*
X346147Y138063D01*
X346814Y138063D01*
X347480Y137634D01*
X347480Y136348D01*
X346814Y135920D01*
X346147Y135920D01*
X345480Y136348D01*
X345480Y137634D01*
X347480Y137634D02*
X345480Y136348D01*
X348814Y137634D02*
X349480Y138063D01*
X349480Y135920D01*
X348480Y135920D02*
X350480Y135920D01*
X353147Y138063D02*
X352147Y138063D01*
X351480Y137634D01*
X351480Y136777D01*
X351480Y136348D01*
X352147Y135920D01*
X352814Y135920D01*
X353480Y136348D01*
X353480Y136777D01*
X352814Y137206D01*
X352147Y137206D01*
X351480Y136777D01*
X364914Y137634D02*
X365580Y138063D01*
X365580Y135920D01*
X364580Y135920D02*
X366580Y135920D01*
X368914Y135920D02*
X368247Y135920D01*
X367580Y136348D01*
X367580Y136777D01*
X367914Y136991D01*
X367580Y137206D01*
X367580Y137634D01*
X368247Y138063D01*
X368914Y138063D01*
X369580Y137634D01*
X369580Y137206D01*
X369247Y136991D01*
X369580Y136777D01*
X369580Y136348D01*
X368914Y135920D01*
X367914Y136991D02*
X369247Y136991D01*
X385180Y135920D02*
X385180Y138063D01*
X386514Y138063D01*
X387180Y137634D01*
X387180Y137420D01*
X386514Y136991D01*
X385180Y136991D01*
X389180Y135920D02*
X389180Y138063D01*
X388180Y138063D02*
X390180Y138063D01*
X391180Y135920D02*
X391180Y138063D01*
X393180Y135920D02*
X393180Y138063D01*
X391180Y136991D02*
X393180Y136991D01*
X402780Y137634D02*
X403447Y138063D01*
X404114Y138063D01*
X404780Y137634D01*
X404780Y136348D01*
X404114Y135920D01*
X403447Y135920D01*
X402780Y136348D01*
X402780Y137634D01*
X404780Y137634D02*
X402780Y136348D01*
X410447Y135920D02*
X410114Y135920D01*
X409447Y136348D01*
X409447Y137634D01*
X410114Y138063D01*
X410447Y138063D01*
X411780Y135920D02*
X411780Y138063D01*
X413114Y138063D01*
X413780Y137634D01*
X413780Y137420D01*
X413114Y136991D01*
X411780Y136991D01*
X412114Y136991D02*
X413780Y135920D01*
X414780Y136348D02*
X415447Y135920D01*
X416114Y135920D01*
X416780Y136348D01*
X416780Y137634D01*
X416114Y138063D01*
X415447Y138063D01*
X414780Y137634D01*
X414780Y136348D01*
X417780Y138063D02*
X417780Y136348D01*
X418447Y135920D01*
X419114Y135920D01*
X419780Y136348D01*
X419780Y138063D01*
X420780Y135920D02*
X420780Y138063D01*
X422780Y135920D01*
X422780Y138063D01*
X423780Y135920D02*
X425114Y135920D01*
X425780Y136348D01*
X425780Y137634D01*
X425114Y138063D01*
X423780Y138063D01*
X424114Y138063D02*
X424114Y135920D01*
X427114Y138063D02*
X427447Y138063D01*
X428114Y137634D01*
X428114Y136348D01*
X427447Y135920D01*
X427114Y135920D01*
X329047Y136059D02*
X329765Y136777D01*
X329047Y137495D01*
X328329Y136777D01*
X329047Y136059D01*
X339814Y141734D02*
X340480Y142163D01*
X340480Y140020D01*
X339480Y140020D02*
X341480Y140020D01*
X343480Y140020D02*
X343480Y140234D01*
X345480Y141734D02*
X346147Y142163D01*
X346814Y142163D01*
X347480Y141734D01*
X347480Y140448D01*
X346814Y140020D01*
X346147Y140020D01*
X345480Y140448D01*
X345480Y141734D01*
X347480Y141734D02*
X345480Y140448D01*
X348480Y141734D02*
X349147Y142163D01*
X349814Y142163D01*
X350480Y141734D01*
X350480Y140448D01*
X349814Y140020D01*
X349147Y140020D01*
X348480Y140448D01*
X348480Y141734D01*
X350480Y141734D02*
X348480Y140448D01*
X351480Y141734D02*
X352147Y142163D01*
X352814Y142163D01*
X353480Y141734D01*
X353480Y140448D01*
X352814Y140020D01*
X352147Y140020D01*
X351480Y140448D01*
X351480Y141734D01*
X353480Y141734D02*
X351480Y140448D01*
X364914Y141948D02*
X365247Y142163D01*
X365914Y142163D01*
X366580Y141734D01*
X366580Y141306D01*
X366247Y141091D01*
X366580Y140877D01*
X366580Y140448D01*
X365914Y140020D01*
X365247Y140020D01*
X364914Y140234D01*
X365247Y141091D02*
X366247Y141091D01*
X367580Y141734D02*
X368247Y142163D01*
X368914Y142163D01*
X369580Y141734D01*
X369580Y140448D01*
X368914Y140020D01*
X368247Y140020D01*
X367580Y140448D01*
X367580Y141734D01*
X369580Y141734D02*
X367580Y140448D01*
X385180Y140020D02*
X385180Y142163D01*
X386514Y142163D01*
X387180Y141734D01*
X387180Y141520D01*
X386514Y141091D01*
X385180Y141091D01*
X389180Y140020D02*
X389180Y142163D01*
X388180Y142163D02*
X390180Y142163D01*
X391180Y140020D02*
X391180Y142163D01*
X393180Y140020D02*
X393180Y142163D01*
X391180Y141091D02*
X393180Y141091D01*
X402780Y141734D02*
X403447Y142163D01*
X404114Y142163D01*
X404780Y141734D01*
X404780Y140448D01*
X404114Y140020D01*
X403447Y140020D01*
X402780Y140448D01*
X402780Y141734D01*
X404780Y141734D02*
X402780Y140448D01*
X410447Y140020D02*
X410114Y140020D01*
X409447Y140448D01*
X409447Y141734D01*
X410114Y142163D01*
X410447Y142163D01*
X411780Y140020D02*
X411780Y142163D01*
X413114Y142163D01*
X413780Y141734D01*
X413780Y141520D01*
X413114Y141091D01*
X411780Y141091D01*
X412114Y141091D02*
X413780Y140020D01*
X414780Y140448D02*
X415447Y140020D01*
X416114Y140020D01*
X416780Y140448D01*
X416780Y141734D01*
X416114Y142163D01*
X415447Y142163D01*
X414780Y141734D01*
X414780Y140448D01*
X417780Y142163D02*
X417780Y140448D01*
X418447Y140020D01*
X419114Y140020D01*
X419780Y140448D01*
X419780Y142163D01*
X420780Y140020D02*
X420780Y142163D01*
X422780Y140020D01*
X422780Y142163D01*
X423780Y140020D02*
X425114Y140020D01*
X425780Y140448D01*
X425780Y141734D01*
X425114Y142163D01*
X423780Y142163D01*
X424114Y142163D02*
X424114Y140020D01*
X427114Y142163D02*
X427447Y142163D01*
X428114Y141734D01*
X428114Y140448D01*
X427447Y140020D01*
X427114Y140020D01*
X328853Y140734D02*
X329075Y140734D01*
X329186Y140806D01*
X329186Y140841D01*
X329075Y140913D01*
X329186Y140984D01*
X329186Y141020D01*
X329075Y141091D01*
X328908Y141091D01*
X328853Y141091D01*
X328908Y140913D02*
X329075Y140913D01*
X328908Y141091D02*
X328908Y140734D01*
X328547Y140877D02*
G75*
D01*
G02X328547Y140877I500J0*
G01*
X339480Y145834D02*
X340147Y146263D01*
X340814Y146263D01*
X341480Y145834D01*
X341480Y144548D01*
X340814Y144120D01*
X340147Y144120D01*
X339480Y144548D01*
X339480Y145834D01*
X341480Y145834D02*
X339480Y144548D01*
X343480Y144120D02*
X343480Y144334D01*
X345480Y144548D02*
X346147Y144120D01*
X346814Y144120D01*
X347480Y144548D01*
X347480Y145406D01*
X347480Y145834D01*
X346814Y146263D01*
X346147Y146263D01*
X345480Y145834D01*
X345480Y145406D01*
X346147Y144977D01*
X346814Y144977D01*
X347480Y145406D01*
X348480Y144548D02*
X349147Y144120D01*
X349814Y144120D01*
X350480Y144548D01*
X350480Y145406D01*
X350480Y145834D01*
X349814Y146263D01*
X349147Y146263D01*
X348480Y145834D01*
X348480Y145406D01*
X349147Y144977D01*
X349814Y144977D01*
X350480Y145406D01*
X353480Y146263D02*
X351480Y146263D01*
X351480Y145406D01*
X352814Y145406D01*
X353480Y144977D01*
X353480Y144548D01*
X352814Y144120D01*
X351480Y144120D01*
X364914Y146048D02*
X365247Y146263D01*
X365914Y146263D01*
X366580Y145834D01*
X366580Y145406D01*
X366247Y145191D01*
X366580Y144977D01*
X366580Y144548D01*
X365914Y144120D01*
X365247Y144120D01*
X364914Y144334D01*
X365247Y145191D02*
X366247Y145191D01*
X369580Y144977D02*
X367580Y144977D01*
X369247Y146263D01*
X369247Y144120D01*
X368914Y144120D02*
X369580Y144120D01*
X385180Y144120D02*
X385180Y146263D01*
X386514Y146263D01*
X387180Y145834D01*
X387180Y145620D01*
X386514Y145191D01*
X385180Y145191D01*
X389180Y144120D02*
X389180Y146263D01*
X388180Y146263D02*
X390180Y146263D01*
X391180Y144120D02*
X391180Y146263D01*
X393180Y144120D02*
X393180Y146263D01*
X391180Y145191D02*
X393180Y145191D01*
X402780Y145834D02*
X403447Y146263D01*
X404114Y146263D01*
X404780Y145834D01*
X404780Y144548D01*
X404114Y144120D01*
X403447Y144120D01*
X402780Y144548D01*
X402780Y145834D01*
X404780Y145834D02*
X402780Y144548D01*
X410447Y144120D02*
X410114Y144120D01*
X409447Y144548D01*
X409447Y145834D01*
X410114Y146263D01*
X410447Y146263D01*
X411780Y144120D02*
X411780Y146263D01*
X413114Y146263D01*
X413780Y145834D01*
X413780Y145620D01*
X413114Y145191D01*
X411780Y145191D01*
X412114Y145191D02*
X413780Y144120D01*
X414780Y144548D02*
X415447Y144120D01*
X416114Y144120D01*
X416780Y144548D01*
X416780Y145834D01*
X416114Y146263D01*
X415447Y146263D01*
X414780Y145834D01*
X414780Y144548D01*
X417780Y146263D02*
X417780Y144548D01*
X418447Y144120D01*
X419114Y144120D01*
X419780Y144548D01*
X419780Y146263D01*
X420780Y144120D02*
X420780Y146263D01*
X422780Y144120D01*
X422780Y146263D01*
X423780Y144120D02*
X425114Y144120D01*
X425780Y144548D01*
X425780Y145834D01*
X425114Y146263D01*
X423780Y146263D01*
X424114Y146263D02*
X424114Y144120D01*
X427114Y146263D02*
X427447Y146263D01*
X428114Y145834D01*
X428114Y144548D01*
X427447Y144120D01*
X427114Y144120D01*
X339480Y149934D02*
X340147Y150363D01*
X340814Y150363D01*
X341480Y149934D01*
X341480Y148648D01*
X340814Y148220D01*
X340147Y148220D01*
X339480Y148648D01*
X339480Y149934D01*
X341480Y149934D02*
X339480Y148648D01*
X343480Y148220D02*
X343480Y148434D01*
X345480Y148648D02*
X346147Y148220D01*
X346814Y148220D01*
X347480Y148648D01*
X347480Y149506D01*
X347480Y149934D01*
X346814Y150363D01*
X346147Y150363D01*
X345480Y149934D01*
X345480Y149506D01*
X346147Y149077D01*
X346814Y149077D01*
X347480Y149506D01*
X348480Y149934D02*
X349147Y150363D01*
X349814Y150363D01*
X350480Y149934D01*
X350480Y148648D01*
X349814Y148220D01*
X349147Y148220D01*
X348480Y148648D01*
X348480Y149934D01*
X350480Y149934D02*
X348480Y148648D01*
X351480Y149934D02*
X352147Y150363D01*
X352814Y150363D01*
X353480Y149934D01*
X353480Y148648D01*
X352814Y148220D01*
X352147Y148220D01*
X351480Y148648D01*
X351480Y149934D01*
X353480Y149934D02*
X351480Y148648D01*
X363080Y149934D02*
X363747Y150363D01*
X364414Y150363D01*
X365080Y149934D01*
X365080Y149720D01*
X363080Y148220D01*
X365080Y148220D01*
X365080Y148434D01*
X366080Y149934D02*
X366747Y150363D01*
X367414Y150363D01*
X368080Y149934D01*
X368080Y148648D01*
X367414Y148220D01*
X366747Y148220D01*
X366080Y148648D01*
X366080Y149934D01*
X368080Y149934D02*
X366080Y148648D01*
X370414Y148220D02*
X369747Y148220D01*
X369080Y148648D01*
X369080Y149077D01*
X369414Y149291D01*
X369080Y149506D01*
X369080Y149934D01*
X369747Y150363D01*
X370414Y150363D01*
X371080Y149934D01*
X371080Y149506D01*
X370747Y149291D01*
X371080Y149077D01*
X371080Y148648D01*
X370414Y148220D01*
X369414Y149291D02*
X370747Y149291D01*
X385180Y148220D02*
X385180Y150363D01*
X386514Y150363D01*
X387180Y149934D01*
X387180Y149720D01*
X386514Y149291D01*
X385180Y149291D01*
X389180Y148220D02*
X389180Y150363D01*
X388180Y150363D02*
X390180Y150363D01*
X391180Y148220D02*
X391180Y150363D01*
X393180Y148220D02*
X393180Y150363D01*
X391180Y149291D02*
X393180Y149291D01*
X402780Y149934D02*
X403447Y150363D01*
X404114Y150363D01*
X404780Y149934D01*
X404780Y148648D01*
X404114Y148220D01*
X403447Y148220D01*
X402780Y148648D01*
X402780Y149934D01*
X404780Y149934D02*
X402780Y148648D01*
X410447Y148220D02*
X410114Y148220D01*
X409447Y148648D01*
X409447Y149934D01*
X410114Y150363D01*
X410447Y150363D01*
X411780Y148220D02*
X411780Y150363D01*
X413114Y150363D01*
X413780Y149934D01*
X413780Y149720D01*
X413114Y149291D01*
X411780Y149291D01*
X412114Y149291D02*
X413780Y148220D01*
X414780Y148648D02*
X415447Y148220D01*
X416114Y148220D01*
X416780Y148648D01*
X416780Y149934D01*
X416114Y150363D01*
X415447Y150363D01*
X414780Y149934D01*
X414780Y148648D01*
X417780Y150363D02*
X417780Y148648D01*
X418447Y148220D01*
X419114Y148220D01*
X419780Y148648D01*
X419780Y150363D01*
X420780Y148220D02*
X420780Y150363D01*
X422780Y148220D01*
X422780Y150363D01*
X423780Y148220D02*
X425114Y148220D01*
X425780Y148648D01*
X425780Y149934D01*
X425114Y150363D01*
X423780Y150363D01*
X424114Y150363D02*
X424114Y148220D01*
X427114Y150363D02*
X427447Y150363D01*
X428114Y149934D01*
X428114Y148648D01*
X427447Y148220D01*
X427114Y148220D01*
X339480Y154034D02*
X340147Y154463D01*
X340814Y154463D01*
X341480Y154034D01*
X341480Y152748D01*
X340814Y152320D01*
X340147Y152320D01*
X339480Y152748D01*
X339480Y154034D01*
X341480Y154034D02*
X339480Y152748D01*
X343480Y152320D02*
X343480Y152534D01*
X346814Y152320D02*
X346147Y152320D01*
X345480Y152748D01*
X345480Y153177D01*
X345814Y153391D01*
X345480Y153606D01*
X345480Y154034D01*
X346147Y154463D01*
X346814Y154463D01*
X347480Y154034D01*
X347480Y153606D01*
X347147Y153391D01*
X347480Y153177D01*
X347480Y152748D01*
X346814Y152320D01*
X345814Y153391D02*
X347147Y153391D01*
X349814Y152320D02*
X349147Y152320D01*
X348480Y152748D01*
X348480Y153177D01*
X348814Y153391D01*
X348480Y153606D01*
X348480Y154034D01*
X349147Y154463D01*
X349814Y154463D01*
X350480Y154034D01*
X350480Y153606D01*
X350147Y153391D01*
X350480Y153177D01*
X350480Y152748D01*
X349814Y152320D01*
X348814Y153391D02*
X350147Y153391D01*
X351480Y152748D02*
X352147Y152320D01*
X352814Y152320D01*
X353480Y152748D01*
X353480Y153606D01*
X353480Y154034D01*
X352814Y154463D01*
X352147Y154463D01*
X351480Y154034D01*
X351480Y153606D01*
X352147Y153177D01*
X352814Y153177D01*
X353480Y153606D01*
X363080Y154034D02*
X363747Y154463D01*
X364414Y154463D01*
X365080Y154034D01*
X365080Y153820D01*
X363080Y152320D01*
X365080Y152320D01*
X365080Y152534D01*
X367747Y154463D02*
X366747Y154463D01*
X366080Y154034D01*
X366080Y153177D01*
X366080Y152748D01*
X366747Y152320D01*
X367414Y152320D01*
X368080Y152748D01*
X368080Y153177D01*
X367414Y153606D01*
X366747Y153606D01*
X366080Y153177D01*
X369080Y152748D02*
X369747Y152320D01*
X370414Y152320D01*
X371080Y152748D01*
X371080Y153606D01*
X371080Y154034D01*
X370414Y154463D01*
X369747Y154463D01*
X369080Y154034D01*
X369080Y153606D01*
X369747Y153177D01*
X370414Y153177D01*
X371080Y153606D01*
X385180Y152320D02*
X385180Y154463D01*
X386514Y154463D01*
X387180Y154034D01*
X387180Y153820D01*
X386514Y153391D01*
X385180Y153391D01*
X389180Y152320D02*
X389180Y154463D01*
X388180Y154463D02*
X390180Y154463D01*
X391180Y152320D02*
X391180Y154463D01*
X393180Y152320D02*
X393180Y154463D01*
X391180Y153391D02*
X393180Y153391D01*
X402780Y154034D02*
X403447Y154463D01*
X404114Y154463D01*
X404780Y154034D01*
X404780Y152748D01*
X404114Y152320D01*
X403447Y152320D01*
X402780Y152748D01*
X402780Y154034D01*
X404780Y154034D02*
X402780Y152748D01*
X410447Y152320D02*
X410114Y152320D01*
X409447Y152748D01*
X409447Y154034D01*
X410114Y154463D01*
X410447Y154463D01*
X411780Y152320D02*
X411780Y154463D01*
X413114Y154463D01*
X413780Y154034D01*
X413780Y153820D01*
X413114Y153391D01*
X411780Y153391D01*
X412114Y153391D02*
X413780Y152320D01*
X414780Y152748D02*
X415447Y152320D01*
X416114Y152320D01*
X416780Y152748D01*
X416780Y154034D01*
X416114Y154463D01*
X415447Y154463D01*
X414780Y154034D01*
X414780Y152748D01*
X417780Y154463D02*
X417780Y152748D01*
X418447Y152320D01*
X419114Y152320D01*
X419780Y152748D01*
X419780Y154463D01*
X420780Y152320D02*
X420780Y154463D01*
X422780Y152320D01*
X422780Y154463D01*
X423780Y152320D02*
X425114Y152320D01*
X425780Y152748D01*
X425780Y154034D01*
X425114Y154463D01*
X423780Y154463D01*
X424114Y154463D02*
X424114Y152320D01*
X427114Y154463D02*
X427447Y154463D01*
X428114Y154034D01*
X428114Y152748D01*
X427447Y152320D01*
X427114Y152320D01*
X339480Y158134D02*
X340147Y158563D01*
X340814Y158563D01*
X341480Y158134D01*
X341480Y156848D01*
X340814Y156420D01*
X340147Y156420D01*
X339480Y156848D01*
X339480Y158134D01*
X341480Y158134D02*
X339480Y156848D01*
X343480Y156420D02*
X343480Y156634D01*
X346814Y156420D02*
X346147Y156420D01*
X345480Y156848D01*
X345480Y157277D01*
X345814Y157491D01*
X345480Y157706D01*
X345480Y158134D01*
X346147Y158563D01*
X346814Y158563D01*
X347480Y158134D01*
X347480Y157706D01*
X347147Y157491D01*
X347480Y157277D01*
X347480Y156848D01*
X346814Y156420D01*
X345814Y157491D02*
X347147Y157491D01*
X348480Y158134D02*
X349147Y158563D01*
X349814Y158563D01*
X350480Y158134D01*
X350480Y156848D01*
X349814Y156420D01*
X349147Y156420D01*
X348480Y156848D01*
X348480Y158134D01*
X350480Y158134D02*
X348480Y156848D01*
X351480Y158134D02*
X352147Y158563D01*
X352814Y158563D01*
X353480Y158134D01*
X353480Y156848D01*
X352814Y156420D01*
X352147Y156420D01*
X351480Y156848D01*
X351480Y158134D01*
X353480Y158134D02*
X351480Y156848D01*
X366580Y157277D02*
X364580Y157277D01*
X366247Y158563D01*
X366247Y156420D01*
X365914Y156420D02*
X366580Y156420D01*
X367914Y158134D02*
X368580Y158563D01*
X368580Y156420D01*
X367580Y156420D02*
X369580Y156420D01*
X385180Y156420D02*
X385180Y158563D01*
X386514Y158563D01*
X387180Y158134D01*
X387180Y157920D01*
X386514Y157491D01*
X385180Y157491D01*
X389180Y156420D02*
X389180Y158563D01*
X388180Y158563D02*
X390180Y158563D01*
X391180Y156420D02*
X391180Y158563D01*
X393180Y156420D02*
X393180Y158563D01*
X391180Y157491D02*
X393180Y157491D01*
X402780Y158134D02*
X403447Y158563D01*
X404114Y158563D01*
X404780Y158134D01*
X404780Y156848D01*
X404114Y156420D01*
X403447Y156420D01*
X402780Y156848D01*
X402780Y158134D01*
X404780Y158134D02*
X402780Y156848D01*
X410447Y156420D02*
X410114Y156420D01*
X409447Y156848D01*
X409447Y158134D01*
X410114Y158563D01*
X410447Y158563D01*
X411780Y156420D02*
X411780Y158563D01*
X413114Y158563D01*
X413780Y158134D01*
X413780Y157920D01*
X413114Y157491D01*
X411780Y157491D01*
X412114Y157491D02*
X413780Y156420D01*
X414780Y156848D02*
X415447Y156420D01*
X416114Y156420D01*
X416780Y156848D01*
X416780Y158134D01*
X416114Y158563D01*
X415447Y158563D01*
X414780Y158134D01*
X414780Y156848D01*
X417780Y158563D02*
X417780Y156848D01*
X418447Y156420D01*
X419114Y156420D01*
X419780Y156848D01*
X419780Y158563D01*
X420780Y156420D02*
X420780Y158563D01*
X422780Y156420D01*
X422780Y158563D01*
X423780Y156420D02*
X425114Y156420D01*
X425780Y156848D01*
X425780Y158134D01*
X425114Y158563D01*
X423780Y158563D01*
X424114Y158563D02*
X424114Y156420D01*
X427114Y158563D02*
X427447Y158563D01*
X428114Y158134D01*
X428114Y156848D01*
X427447Y156420D01*
X427114Y156420D01*
G04 ColorRGB 00FFFF for the following layer *
%LNBoard Outline*%
%LPD*%
G54D10*
G54D13*
X-80Y-10D02*
X297870Y-10D01*
X297870Y170000D01*
X-80Y170000D01*
X-80Y-10D01*
G54D14*
X-1207Y-1137D02*
X-1207Y16089D01*
X-1207Y-1137D02*
X28813Y-1137D01*
X298997Y-1137D02*
X268977Y-1137D01*
X298997Y-1137D02*
X298997Y16089D01*
X298997Y171127D02*
X298997Y153901D01*
X298997Y171127D02*
X268977Y171127D01*
X-1207Y171127D02*
X28813Y171127D01*
X-1207Y171127D02*
X-1207Y153901D01*
X-6207Y-1137D02*
X-16207Y-1137D01*
X-11207Y-6137D02*
X-11207Y3863D01*
X-14957Y-1137D02*
G75*
D01*
G02X-14957Y-1137I3750J0*
G01*
X303997Y-1137D02*
X313997Y-1137D01*
X308997Y-6137D02*
X308997Y3863D01*
X305247Y-1137D02*
G75*
D01*
G02X305247Y-1137I3750J0*
G01*
X307747Y-1137D02*
G75*
D01*
G02X307747Y-1137I1250J0*
G01*
X-6207Y171127D02*
X-16207Y171127D01*
X-11207Y166127D02*
X-11207Y176127D01*
X-14957Y171127D02*
G75*
D01*
G02X-14957Y171127I3750J0*
G01*
X-13707Y171127D02*
G75*
D01*
G02X-13707Y171127I2500J0*
G01*
X-12457Y171127D02*
G75*
D01*
G02X-12457Y171127I1250J0*
G01*
G04 ColorRGB 66FFCC for the following layer *
%LNLegend Description*%
%LPD*%
G54D12*
X319497Y110127D02*
X432997Y110127D01*
X432997Y171627D01*
X319497Y171627D01*
X319497Y110127D01*
X338597Y163427D02*
X338597Y110127D01*
X354697Y163427D02*
X354697Y110127D01*
X379797Y163427D02*
X379797Y110127D01*
X398897Y163427D02*
X398897Y110127D01*
X432997Y163427D02*
X432997Y110127D01*
X319497Y114227D02*
X432997Y114227D01*
X319497Y118327D02*
X432997Y118327D01*
X319497Y122427D02*
X432997Y122427D01*
X319497Y126527D02*
X432997Y126527D01*
X319497Y130627D02*
X432997Y130627D01*
X319497Y134727D02*
X432997Y134727D01*
X319497Y138827D02*
X432997Y138827D01*
X319497Y142927D02*
X432997Y142927D01*
X319497Y147027D02*
X432997Y147027D01*
X319497Y151127D02*
X432997Y151127D01*
X319497Y155227D02*
X432997Y155227D01*
X320380Y160948D02*
X321047Y160520D01*
X321714Y160520D01*
X322380Y160948D01*
X320380Y162234D01*
X321047Y162663D01*
X321714Y162663D01*
X322380Y162234D01*
X323380Y159877D02*
X323714Y159877D01*
X325380Y162020D01*
X323380Y162020D02*
X324380Y160734D01*
X326380Y160520D02*
X326380Y161806D01*
X326380Y162020D01*
X326380Y161806D02*
X326714Y162020D01*
X327047Y162020D01*
X327380Y161806D01*
X327714Y162020D01*
X328047Y162020D01*
X328380Y161806D01*
X328380Y160520D01*
X327380Y161806D02*
X327380Y160520D01*
X329380Y160948D02*
X330047Y160520D01*
X330714Y160520D01*
X331380Y160948D01*
X331380Y161377D01*
X330714Y161806D01*
X330047Y161806D01*
X329380Y161377D01*
X329380Y162663D02*
X329380Y160520D01*
X332380Y160948D02*
X333047Y160520D01*
X333714Y160520D01*
X334380Y160948D01*
X334380Y161591D01*
X333714Y162020D01*
X333047Y162020D01*
X332380Y161591D01*
X332380Y160948D01*
X335714Y162663D02*
X335714Y160948D01*
X336380Y160520D01*
X319497Y159327D02*
X432997Y159327D01*
X340980Y160948D02*
X341647Y160520D01*
X342314Y160520D01*
X342980Y160948D01*
X340980Y162234D01*
X341647Y162663D01*
X342314Y162663D01*
X342980Y162234D01*
X344980Y160520D02*
X344980Y161806D01*
X344980Y162234D02*
X344980Y162448D01*
X346980Y162020D02*
X348980Y162020D01*
X346980Y160520D01*
X348980Y160520D01*
X351980Y160948D02*
X351314Y160520D01*
X350647Y160520D01*
X349980Y160948D01*
X349980Y161591D01*
X350647Y162020D01*
X351314Y162020D01*
X351980Y161591D01*
X351647Y161377D01*
X349980Y161377D01*
X355580Y160948D02*
X356247Y160520D01*
X356914Y160520D01*
X357580Y160948D01*
X357580Y162234D01*
X356914Y162663D01*
X356247Y162663D01*
X355580Y162234D01*
X355580Y160948D01*
X356914Y160948D02*
X357580Y160520D01*
X358580Y162020D02*
X358580Y160948D01*
X359247Y160520D01*
X359914Y160520D01*
X360580Y160948D01*
X360580Y162020D01*
X360580Y160948D02*
X360580Y160520D01*
X361914Y162020D02*
X362914Y162020D01*
X363247Y161806D01*
X363247Y160734D01*
X362914Y160520D01*
X361914Y160520D01*
X361580Y160734D01*
X361580Y161163D01*
X361914Y161377D01*
X363247Y161377D01*
X363247Y160734D02*
X363580Y160520D01*
X364580Y160520D02*
X364580Y161806D01*
X364580Y162020D01*
X364580Y161806D02*
X364914Y162020D01*
X365580Y162020D01*
X365914Y161806D01*
X365914Y160520D01*
X369247Y160734D02*
X368914Y160520D01*
X368580Y160734D01*
X368580Y162663D01*
X367914Y162020D02*
X369247Y162020D01*
X371580Y160520D02*
X371580Y161806D01*
X371580Y162234D02*
X371580Y162448D01*
X375247Y160734D02*
X374914Y160520D01*
X374580Y160734D01*
X374580Y162663D01*
X373914Y162020D02*
X375247Y162020D01*
X376580Y159877D02*
X376914Y159877D01*
X378580Y162020D01*
X376580Y162020D02*
X377580Y160734D01*
X380680Y160520D02*
X380680Y162663D01*
X382014Y162663D01*
X382680Y162234D01*
X382680Y162020D01*
X382014Y161591D01*
X380680Y161591D01*
X384014Y162663D02*
X384014Y160948D01*
X384680Y160520D01*
X387014Y162020D02*
X388014Y162020D01*
X388347Y161806D01*
X388347Y160734D01*
X388014Y160520D01*
X387014Y160520D01*
X386680Y160734D01*
X386680Y161163D01*
X387014Y161377D01*
X388347Y161377D01*
X388347Y160734D02*
X388680Y160520D01*
X391347Y160734D02*
X391014Y160520D01*
X390680Y160734D01*
X390680Y162663D01*
X390014Y162020D02*
X391347Y162020D01*
X394680Y160948D02*
X394014Y160520D01*
X393347Y160520D01*
X392680Y160948D01*
X392680Y161591D01*
X393347Y162020D01*
X394014Y162020D01*
X394680Y161591D01*
X394347Y161377D01*
X392680Y161377D01*
X397680Y160948D02*
X397014Y160520D01*
X396347Y160520D01*
X395680Y160948D01*
X395680Y161377D01*
X396347Y161806D01*
X397014Y161806D01*
X397680Y161377D01*
X397680Y162663D02*
X397680Y160520D01*
X399780Y160948D02*
X400447Y160520D01*
X401114Y160520D01*
X401780Y160948D01*
X399780Y162234D01*
X400447Y162663D01*
X401114Y162663D01*
X401780Y162234D01*
X403114Y162663D02*
X403114Y160948D01*
X403780Y160520D01*
X405780Y160948D02*
X406447Y160520D01*
X407114Y160520D01*
X407780Y160948D01*
X407780Y161591D01*
X407114Y162020D01*
X406447Y162020D01*
X405780Y161591D01*
X405780Y160948D01*
X410447Y160734D02*
X410114Y160520D01*
X409780Y160734D01*
X409780Y162663D01*
X409114Y162020D02*
X410447Y162020D01*
X414780Y162663D02*
X414780Y160520D01*
X416780Y160520D01*
X419780Y160948D02*
X419114Y160520D01*
X418447Y160520D01*
X417780Y160948D01*
X417780Y161591D01*
X418447Y162020D01*
X419114Y162020D01*
X419780Y161591D01*
X419447Y161377D01*
X417780Y161377D01*
X420780Y160520D02*
X420780Y161806D01*
X420780Y162020D01*
X420780Y161806D02*
X421114Y162020D01*
X421780Y162020D01*
X422114Y161806D01*
X422114Y160520D01*
X423780Y160306D02*
X424447Y159877D01*
X425114Y159877D01*
X425780Y160306D01*
X425780Y160948D01*
X425780Y161591D01*
X425114Y162020D01*
X424447Y162020D01*
X423780Y161591D01*
X423780Y160948D01*
X424447Y160520D01*
X425114Y160520D01*
X425780Y160948D01*
X428447Y160734D02*
X428114Y160520D01*
X427780Y160734D01*
X427780Y162663D01*
X427114Y162020D02*
X428447Y162020D01*
X429780Y161591D02*
X430447Y162020D01*
X431114Y162020D01*
X431780Y161591D01*
X431780Y160520D01*
X429780Y162663D02*
X429780Y160520D01*
X319497Y163427D02*
X432997Y163427D01*
X348080Y164620D02*
X348080Y165906D01*
X348747Y166763D01*
X349414Y166763D01*
X350080Y165906D01*
X350080Y164620D01*
X348080Y165263D02*
X350080Y165263D01*
X351414Y166763D02*
X351414Y165048D01*
X352080Y164620D01*
X354414Y166763D02*
X354414Y165048D01*
X355080Y164620D01*
X360080Y166120D02*
X360080Y165048D01*
X360747Y164620D01*
X361414Y164620D01*
X362080Y165048D01*
X362080Y166120D01*
X362080Y165048D02*
X362080Y164620D01*
X363080Y164620D02*
X363080Y165906D01*
X363080Y166120D01*
X363080Y165906D02*
X363414Y166120D01*
X364080Y166120D01*
X364414Y165906D01*
X364414Y164620D01*
X367080Y164620D02*
X367080Y165906D01*
X367080Y166334D02*
X367080Y166548D01*
X370747Y164834D02*
X370414Y164620D01*
X370080Y164834D01*
X370080Y166763D01*
X369414Y166120D02*
X370747Y166120D01*
X372080Y165048D02*
X372747Y164620D01*
X373414Y164620D01*
X374080Y165048D01*
X372080Y165691D01*
X372747Y166120D01*
X373414Y166120D01*
X374080Y165691D01*
X378414Y166120D02*
X379414Y166120D01*
X379747Y165906D01*
X379747Y164834D01*
X379414Y164620D01*
X378414Y164620D01*
X378080Y164834D01*
X378080Y165263D01*
X378414Y165477D01*
X379747Y165477D01*
X379747Y164834D02*
X380080Y164620D01*
X381080Y165477D02*
X382080Y166120D01*
X382414Y166120D01*
X383080Y165691D01*
X381080Y164620D02*
X381080Y166120D01*
X386080Y165048D02*
X385414Y164620D01*
X384747Y164620D01*
X384080Y165048D01*
X384080Y165691D01*
X384747Y166120D01*
X385414Y166120D01*
X386080Y165691D01*
X385747Y165477D01*
X384080Y165477D01*
X391080Y164620D02*
X391080Y165906D01*
X391080Y166334D02*
X391080Y166548D01*
X393080Y164620D02*
X393080Y165906D01*
X393080Y166120D01*
X393080Y165906D02*
X393414Y166120D01*
X394080Y166120D01*
X394414Y165906D01*
X394414Y164620D01*
X399080Y164620D02*
X399080Y165906D01*
X399080Y166120D01*
X399080Y165906D02*
X399414Y166120D01*
X399747Y166120D01*
X400080Y165906D01*
X400414Y166120D01*
X400747Y166120D01*
X401080Y165906D01*
X401080Y164620D01*
X400080Y165906D02*
X400080Y164620D01*
X402080Y164620D02*
X402080Y165906D01*
X402080Y166120D01*
X402080Y165906D02*
X402414Y166120D01*
X402747Y166120D01*
X403080Y165906D01*
X403414Y166120D01*
X403747Y166120D01*
X404080Y165906D01*
X404080Y164620D01*
X403080Y165906D02*
X403080Y164620D01*
X319497Y167527D02*
X432997Y167527D01*
X358580Y168720D02*
X359914Y168720D01*
X360580Y169148D01*
X360580Y170434D01*
X359914Y170863D01*
X358580Y170863D01*
X358914Y170863D02*
X358914Y168720D01*
X361580Y169577D02*
X362580Y170220D01*
X362914Y170220D01*
X363580Y169791D01*
X361580Y168720D02*
X361580Y170220D01*
X365580Y168720D02*
X365580Y170006D01*
X365580Y170434D02*
X365580Y170648D01*
X367914Y170863D02*
X367914Y169148D01*
X368580Y168720D01*
X370914Y170863D02*
X370914Y169148D01*
X371580Y168720D01*
X376580Y170863D02*
X376580Y168720D01*
X378580Y168720D01*
X381580Y169148D02*
X380914Y168720D01*
X380247Y168720D01*
X379580Y169148D01*
X379580Y169791D01*
X380247Y170220D01*
X380914Y170220D01*
X381580Y169791D01*
X381247Y169577D01*
X379580Y169577D01*
X382580Y168506D02*
X383247Y168077D01*
X383914Y168077D01*
X384580Y168506D01*
X384580Y169148D01*
X384580Y169791D01*
X383914Y170220D01*
X383247Y170220D01*
X382580Y169791D01*
X382580Y169148D01*
X383247Y168720D01*
X383914Y168720D01*
X384580Y169148D01*
X387580Y169148D02*
X386914Y168720D01*
X386247Y168720D01*
X385580Y169148D01*
X385580Y169791D01*
X386247Y170220D01*
X386914Y170220D01*
X387580Y169791D01*
X387247Y169577D01*
X385580Y169577D01*
X388580Y168720D02*
X388580Y170006D01*
X388580Y170220D01*
X388580Y170006D02*
X388914Y170220D01*
X389580Y170220D01*
X389914Y170006D01*
X389914Y168720D01*
X393580Y169148D02*
X392914Y168720D01*
X392247Y168720D01*
X391580Y169148D01*
X391580Y169577D01*
X392247Y170006D01*
X392914Y170006D01*
X393580Y169577D01*
X393580Y170863D02*
X393580Y168720D01*

M02*
